<svg width="88" height="49" viewBox="0 0 88 49" fill="none" xmlns="http://www.w3.org/2000/svg">
<path d="M68.0365 38.7852C56.7662 38.7852 45.4952 38.7852 34.2388 38.7994C34.0669 38.7994 33.895 38.7852 33.7223 38.7852C33.952 38.3462 34.3968 38.077 34.6543 37.6663C34.8694 37.3405 35.1562 37.2697 35.5294 37.2697C45.6956 37.2839 55.848 37.2697 66.0151 37.2697C66.517 37.2697 67.0327 37.2839 67.5346 37.2697C68.223 37.2414 68.883 37.1422 69.4704 36.7598C69.4851 36.7598 69.4989 36.7598 69.5136 36.7456C69.6284 36.7456 69.7002 36.7031 69.7572 36.604C69.8867 36.5615 70.0155 36.4907 70.1157 36.3773C70.202 36.3773 70.2591 36.3348 70.3023 36.2499C70.3169 36.2499 70.3308 36.2357 70.3454 36.2216C71.4494 35.3859 72.0661 34.2953 72.1664 32.9214C72.2095 32.6523 72.2095 32.3973 72.1664 32.1282C72.2095 31.9299 72.181 31.7458 72.08 31.5758C72.0661 31.5192 72.0515 31.4625 72.0515 31.3917C72.0661 31.2501 72.0515 31.1226 71.9513 31.0093C71.9366 30.9668 71.9228 30.9243 71.9081 30.8676C71.9228 30.7402 71.8796 30.641 71.7932 30.556C71.5643 29.862 71.148 29.2812 70.5744 28.828L70.5605 28.8138C70.4742 28.6722 70.3739 28.5589 70.202 28.5164C70.202 28.5022 70.1874 28.4881 70.1735 28.5022C69.3702 27.794 68.395 27.5108 67.348 27.5108C58.3143 27.4966 49.2805 27.5108 40.2613 27.5108C39.401 27.5108 38.526 27.5108 37.6656 27.5108C37.4798 26.3777 37.2216 25.2587 36.7767 24.1965C36.16 22.7517 35.3713 21.4061 34.2535 20.273C34.2388 20.0039 34.1239 19.749 34.2535 19.4799C35.2711 19.4799 36.3034 19.4657 37.3218 19.4657C47.3308 19.4657 57.3398 19.4374 67.3342 19.4799C71.0046 19.494 74.7328 21.7602 76.3394 25.5987C78.0455 29.692 76.1814 34.2386 73.7722 36.3632C72.9119 37.1281 71.9228 37.6946 70.8612 38.1337C70.2876 38.3037 69.7287 38.4736 69.1551 38.6294C69.0834 38.6436 69.0117 38.6436 68.94 38.6578C68.6247 38.7002 68.3233 38.6861 68.0365 38.7852ZM52.7366 23.9981C52.7651 24.0123 52.8083 24.0265 52.8368 24.0406C52.7651 24.6921 52.6795 25.3437 52.6078 25.9952C52.5932 26.0944 52.5361 26.2077 52.6934 26.2785C53.1667 26.4768 53.7974 26.1652 53.8691 25.6553C54.0271 24.5505 54.1559 23.4316 54.2992 22.3126C54.3139 22.1851 54.3139 22.086 54.142 22.086C53.6833 22.0719 53.2384 22.0577 52.9085 22.4826C52.55 22.95 52.1345 23.3608 51.7328 23.7998C51.4314 24.1256 51.4314 24.1397 51.1739 23.7573C50.8871 23.3324 50.6288 22.8933 50.342 22.4543C50.1269 22.1285 49.5102 21.9444 49.1517 22.086C49.0654 22.1285 49.0515 22.1851 49.0368 22.256C48.8796 23.5166 48.7216 24.7771 48.5635 26.0236C48.5496 26.1369 48.5496 26.2361 48.7069 26.2643C49.3815 26.4202 49.8255 26.1227 49.8972 25.4428C49.9404 25.0321 49.9974 24.6214 50.0553 24.2106C50.0691 24.1397 50.0406 24.0265 50.1987 23.9981C50.3991 24.3664 50.6003 24.7346 50.8007 25.1029C51.1446 25.7403 51.2741 25.7544 51.7181 25.202C52.0628 24.8055 52.3927 24.4089 52.7366 23.9981ZM68.395 26.3635C68.6101 26.3493 68.8113 26.3493 69.0264 26.321C70.0872 26.1936 70.7039 25.6837 70.9044 24.7346C70.976 24.3522 71.0338 23.9698 71.0477 23.5732C71.0909 22.7942 70.6461 22.256 69.8721 22.0719C69.1697 21.9019 68.4666 21.916 67.7782 22.1001C67.1761 22.2701 66.7174 22.61 66.5023 23.2191C66.3019 23.814 66.2155 24.4372 66.2587 25.0604C66.2872 25.4428 66.4738 25.7686 66.8323 25.9952C67.3195 26.2927 67.8499 26.3777 68.395 26.3635ZM45.1367 26.3635C45.3233 26.3493 45.5098 26.3635 45.6956 26.3352C46.499 26.2218 47.1874 25.9386 47.5027 25.1313C47.7324 24.5505 47.7895 23.9131 47.7463 23.2899C47.7032 22.6809 47.2876 22.2418 46.6709 22.086C45.9539 21.9019 45.2231 21.9019 44.5061 22.086C43.8177 22.2701 43.3443 22.6809 43.1577 23.3608C43.029 23.8565 42.9573 24.3664 42.9573 24.8763C42.9573 25.3862 43.1862 25.7544 43.6311 26.0094C44.1044 26.3068 44.6063 26.3777 45.1367 26.3635ZM57.1817 26.3635C57.4971 26.3635 57.7985 26.3635 58.0992 26.2927C59.0744 26.0802 59.6048 25.4995 59.7196 24.508C59.7482 24.2531 59.7914 23.9981 59.8199 23.7432C59.9209 22.9075 59.4907 22.2985 58.6589 22.086C57.9419 21.9019 57.2103 21.9302 56.4933 22.1285C55.8766 22.2985 55.4325 22.695 55.2459 23.3183C55.0879 23.8423 55.0308 24.3947 55.0308 24.9471C55.0308 25.4287 55.2459 25.7828 55.6615 26.0377C56.1495 26.3068 56.6513 26.3635 57.1817 26.3635ZM62.7024 22.086C62.172 22.086 61.7989 22.1001 61.4265 22.086C61.1536 22.0719 61.1104 22.1993 61.1682 22.4259C61.2399 22.6809 61.3972 22.8225 61.6701 22.8225C62.1288 22.8225 62.5875 22.8084 63.0462 22.8367C63.7925 22.8933 64.151 23.1483 64.0076 23.9556C63.9644 24.154 63.9359 24.3664 63.9066 24.5647C63.821 25.1313 63.6059 25.3437 63.0462 25.4712C62.7594 25.5278 62.4873 25.5278 62.2005 25.5278C61.9854 25.5278 61.9284 25.4287 61.9569 25.2304C62.0139 24.8763 62.0286 24.5222 62.0856 24.1822C62.229 23.5024 61.9854 23.2049 61.1821 23.2616C60.9963 23.2758 60.9385 23.3608 60.91 23.5307C60.8236 24.2531 60.7381 24.9896 60.6378 25.7119C60.5947 26.0519 60.7519 26.2502 61.068 26.2643C61.9708 26.2927 62.8743 26.3777 63.7632 26.1936C64.4517 26.0519 64.8965 25.6412 65.0684 24.9471C65.1686 24.508 65.2118 24.0548 65.2403 23.6016C65.2688 22.8933 64.925 22.4684 64.2512 22.2418C63.7062 22.0435 63.1179 22.1001 62.7024 22.086ZM41.3368 22.086V22.1001C40.9783 22.1001 40.6198 22.0719 40.2613 22.1001C39.5729 22.171 38.9708 22.4118 38.6123 23.0633C38.354 23.5591 38.3402 24.0973 38.2824 24.6214C38.1968 25.4853 38.6123 26.0094 39.4727 26.1936C40.1611 26.3352 40.8496 26.2643 41.5372 26.2643C41.767 26.2643 41.925 26.1369 42.0391 25.9386C42.2257 25.5987 42.1971 25.5278 41.7955 25.5137C41.2219 25.4995 40.663 25.5562 40.0894 25.4853C39.6161 25.4145 39.4156 25.1738 39.458 24.7064C39.4727 24.4089 39.5158 24.1256 39.5729 23.8423C39.7163 23.1342 40.0316 22.865 40.7632 22.8367C41.1363 22.8225 41.5087 22.8225 41.8672 22.8225C42.1971 22.8225 42.3837 22.6525 42.5271 22.3693C42.6127 22.171 42.5988 22.0719 42.3552 22.0719C42.0252 22.086 41.6806 22.086 41.3368 22.086Z" fill="#5FC503"/>
<path d="M15.7843 21.7319C15.9848 21.5195 16.243 21.3636 16.3718 21.0945C16.4149 21.0803 16.4581 21.0803 16.4435 21.0237C16.4728 21.0096 16.5013 21.0096 16.5152 20.9953C16.8451 20.7404 17.1604 20.4854 17.4904 20.2305C17.9352 19.9473 18.3654 19.664 18.8095 19.3807C19.383 19.1399 19.9427 18.8991 20.5163 18.6583C20.7314 18.6583 20.9318 18.5592 21.1184 18.4883C21.4337 18.4176 21.7637 18.3467 22.079 18.2617C22.3087 18.1626 22.567 18.2759 22.7959 18.2051C23.341 18.1626 23.886 18.1059 24.4311 18.0634C24.5598 18.1626 24.7179 18.1201 24.8466 18.1343C25.4772 18.2051 26.094 18.2759 26.7254 18.3467C27.2411 18.4883 27.743 18.63 28.2595 18.7716C28.4746 18.8991 28.7036 18.9841 28.948 19.0549C29.3489 19.2674 29.7366 19.4656 30.1375 19.6781C30.4243 19.933 30.7689 20.0889 31.0842 20.3155C31.314 20.4997 31.5429 20.6696 31.7727 20.8537C32.633 21.6469 33.3932 22.525 34.0384 23.5023C34.2959 23.984 34.5403 24.4797 34.7978 24.9613C34.7978 25.0463 34.8271 25.117 34.8841 25.1595C34.8841 25.1737 34.8841 25.1879 34.8988 25.202C35.0992 25.8536 35.2858 26.5051 35.4862 27.1425C35.5294 27.4541 35.5865 27.7799 35.6296 28.0914C35.6582 28.3606 35.6728 28.6297 35.7013 28.8988C35.6728 29.5645 35.6443 30.216 35.6157 30.8818C35.5294 31.0517 35.5294 31.2217 35.5294 31.4058C35.3575 31.4483 35.4145 31.5758 35.4292 31.6891C35.386 31.7882 35.2997 31.8591 35.3575 31.9865C35.329 32.0857 35.2997 32.1849 35.2858 32.284C34.999 31.9582 34.7839 32.2698 34.5403 32.369C34.8841 30.9526 35.0846 29.522 34.8695 28.0632C34.511 25.6128 33.4649 23.5023 31.6293 21.7744C29.6503 19.9048 27.2843 18.9557 24.5745 18.8283C23.2408 18.7716 21.9356 18.9841 20.6882 19.4374C17.7486 20.4997 15.6263 22.4543 14.3789 25.287C13.5756 27.1141 13.3466 29.0263 13.662 31.0092C13.7483 31.5616 13.9202 32.0999 13.9919 32.6523C13.8624 32.4823 13.7051 32.3548 13.4754 32.4681C13.332 32.5389 13.3181 32.3548 13.2032 32.3548C13.1886 32.3123 13.1886 32.2698 13.1747 32.2274C13.2749 32.1424 13.2171 32.0999 13.1315 32.0715C13.0737 31.8874 13.0313 31.6891 12.9735 31.505C12.9165 31.1651 12.8733 30.8251 12.8162 30.4852C12.8162 30.2302 12.8301 29.9894 12.7584 29.7345C12.7869 28.9838 12.8301 28.2331 12.9165 27.4824C13.0452 26.9725 13.1747 26.4626 13.3035 25.9527C13.4037 25.6836 13.5039 25.4145 13.6049 25.1454C13.82 24.7063 14.049 24.2672 14.2641 23.8281C14.4506 23.5448 14.6372 23.2474 14.8237 22.9642C14.9671 22.7659 15.1244 22.5817 15.2678 22.3834C15.4397 22.1285 15.6124 21.9302 15.7843 21.7319Z" fill="#21291E"/>
<path d="M32.9628 39.0119C32.4463 39.6209 31.7293 39.9751 31.027 40.3291C30.9838 39.8334 30.5251 39.5784 30.3524 39.1677C30.3239 39.111 30.1952 39.0544 30.1235 39.111C29.9084 39.2385 29.6355 39.3093 29.4782 39.5218C29.2053 39.5643 28.9617 39.6493 28.7327 39.8192C28.331 39.9608 27.9441 40.1025 27.5424 40.2441C27.2271 40.2725 26.9403 40.4 26.6535 40.485C26.4091 40.4282 26.1655 40.5274 25.9365 40.5699C25.5202 40.6549 25.0762 40.5416 24.6745 40.7257C23.929 40.6691 23.1828 40.6124 22.4373 40.5557C21.8205 40.4141 21.1753 40.3433 20.5878 40.1167C20.2864 40.0175 19.9996 39.9042 19.6989 39.8051C19.4407 39.6493 19.1824 39.4934 18.881 39.4368C18.652 39.0969 18.2072 39.0969 17.9204 38.8561C17.7338 38.6011 17.4617 38.4736 17.1749 38.3462C17.1749 38.2187 17.0886 38.162 16.9883 38.1054C16.9166 38.0629 16.8164 38.0062 16.8449 37.9212C16.8735 37.7938 17.003 37.8505 17.1032 37.8363C17.2612 37.808 17.4185 37.893 17.5619 37.7655C17.6051 37.7655 17.6621 37.7655 17.7053 37.7655C17.8055 37.8221 17.8919 37.8787 17.9921 37.9355C20.7744 39.8476 23.7995 40.4 27.0837 39.5784C28.0728 39.3235 28.9763 38.8844 29.8798 38.417C29.9515 38.417 30.0086 38.4029 30.0232 38.332C30.0518 38.3037 30.0803 38.2895 30.1088 38.2612C30.2669 38.1054 30.4534 37.9921 30.6539 37.893C30.7109 37.8787 30.7541 37.8646 30.7826 37.808C30.8258 37.7796 30.869 37.7371 30.9121 37.7088C31.0555 37.8221 31.2421 37.8363 31.414 37.8505C31.7008 37.8787 31.9298 37.9637 32.1449 38.2329C32.3314 38.5303 32.4748 38.9977 32.9628 39.0119Z" fill="#E7EAE5"/>
<path d="M14.8373 19.7914C14.6939 19.9755 14.5937 20.2021 14.364 20.3013C14.2784 20.2163 14.3069 20.1314 14.3069 20.0464C14.2923 18.5733 14.3069 17.1002 14.3069 15.6273C14.3069 12.327 16.8309 8.26202 20.3441 6.91645C20.3441 6.9731 20.3441 7.02976 20.3441 7.10057C19.9424 7.3272 19.4837 7.49717 19.1252 7.76628C18.1354 8.54529 17.1748 9.38096 16.4725 10.4857C16.1425 11.0098 15.8272 11.5339 15.5974 12.1146C15.2104 12.8369 15.0671 13.6301 14.8805 14.4091C14.7517 15.259 14.7086 16.1088 14.7517 16.9728C14.7656 17.6385 14.7656 18.3042 14.7941 18.9699C14.7941 19.239 14.7517 19.5081 14.8373 19.7914Z" fill="#696969"/>
<path d="M34.2241 19.4799C34.0954 19.749 34.2102 20.0039 34.2241 20.273C34.2241 20.3722 34.2102 20.4713 34.2102 20.5847C33.9088 20.5279 33.7939 20.3013 33.6798 20.0605C33.7515 19.3949 33.7084 18.7292 33.7084 18.0634C33.7222 17.596 33.7084 17.1145 33.7515 16.6471C33.8086 16.0663 33.7369 15.4857 33.6505 14.9049C33.5218 13.9417 33.3352 13.0069 32.905 12.1288C32.3176 10.8682 31.6145 9.69259 30.5676 8.77194C30.1235 8.38952 29.6648 8.02125 29.2053 7.65299C29.2346 7.62467 29.2631 7.59634 29.2917 7.55384C31.0841 8.53115 32.36 9.97587 33.1918 11.803C33.8232 13.1769 34.1817 14.6216 34.1239 16.1513C34.0954 17.1286 34.1239 18.1059 34.1239 19.0691C34.1385 19.2107 34.0954 19.3665 34.2241 19.4799Z" fill="#696969"/>
<path d="M12.9303 27.4399C12.8447 28.1907 12.7869 28.9413 12.773 29.692C12.0699 29.7204 11.3815 29.7486 10.6792 29.777C10.6075 29.0688 10.7077 28.3606 10.7362 27.6665C10.8372 27.6383 10.9228 27.6099 10.794 27.5108C10.8226 27.4116 10.8372 27.3125 10.8657 27.2133C11.2674 27.2133 11.6683 27.2275 12.0699 27.3266C12.3428 27.3975 12.6296 27.4541 12.9303 27.4399Z" fill="#9C9C9C"/>
<path d="M14.8375 19.7915C14.7519 19.5224 14.809 19.2391 14.7943 18.9558C14.7805 18.2901 14.7658 17.6244 14.752 16.9587C15.0241 16.9162 15.2538 16.8312 15.2392 16.4913C15.2106 15.7406 15.3109 14.9899 15.4689 14.2534C15.4543 14.0126 15.6547 13.8285 15.6262 13.5877C15.684 13.5593 15.6979 13.5027 15.6979 13.4461C15.8844 12.8087 16.1998 12.228 16.4434 11.6189C16.6161 11.4631 16.6877 11.2223 16.8165 11.024C16.8882 10.9957 16.9745 10.9532 16.9599 11.0948C16.8735 11.2507 16.8018 11.4206 16.7163 11.5764C16.3146 12.4404 15.9993 13.3328 15.8413 14.2676C15.583 15.8398 15.7125 17.4261 15.7125 18.9983C15.6123 19.3524 15.196 19.4232 15.0241 19.7065C14.9524 19.749 14.8953 19.7631 14.8375 19.7915Z" fill="#9C9C9C"/>
<path d="M13.1744 32.1991C13.1883 32.2415 13.1883 32.284 13.203 32.3265C13.2461 32.7939 13.5036 33.2047 13.6185 33.6579C13.4319 33.7571 13.2168 33.8279 13.0018 33.8987C12.5292 34.0687 12.1275 34.3803 11.5971 34.3945C11.2672 33.8562 11.1377 33.2472 11.0089 32.6381C11.1955 32.6381 11.3674 32.6098 11.554 32.5815C12.0697 32.4681 12.5577 32.2132 13.1028 32.1991H13.1313H13.1744Z" fill="#D9D9D9"/>
<path d="M12.9303 27.44C12.6296 27.4683 12.3428 27.3975 12.056 27.3266C11.6544 27.2275 11.2527 27.2275 10.8511 27.2134C10.8942 26.6892 11.0091 26.1793 11.181 25.6837C11.3822 25.6553 11.3676 25.2729 11.6544 25.4145C11.9558 25.5703 12.2996 25.5562 12.615 25.7119C12.8162 25.8111 13.0451 25.9386 13.3034 25.8961C13.1885 26.4202 13.0598 26.9301 12.9303 27.44Z" fill="#B1B1B1"/>
<path d="M15.0096 19.7349C15.1823 19.4374 15.5979 19.3807 15.6981 19.0267C15.9278 19.0408 16.0427 18.8425 16.2 18.7433C16.3295 18.7292 16.4436 18.7292 16.5731 18.7151C17.1035 19.0833 17.4334 19.579 17.4766 20.2306C17.1467 20.4855 16.8313 20.7405 16.5014 20.9954C16.4867 20.9104 16.5014 20.8113 16.3865 20.7972C16.358 20.7972 16.3295 20.8254 16.3002 20.8397C16.3434 20.8963 16.3865 20.9529 16.415 21.0096C16.4297 21.0663 16.3865 21.0804 16.3434 21.0804C15.7559 20.7972 15.4398 20.2023 15.0096 19.7349Z" fill="#F1F1F1"/>
<path d="M14.2786 23.7857C14.0635 24.2248 13.8337 24.6639 13.6187 25.103C13.4321 25.1313 13.3033 24.9896 13.1453 24.933C12.6581 24.763 12.1709 24.5506 11.6829 24.3665C11.8263 23.7999 12.1131 23.3042 12.443 22.8368C12.6866 22.8509 12.9017 22.95 13.1168 23.0917C13.4753 23.3325 13.8769 23.5449 14.2786 23.7857Z" fill="#C9C9C9"/>
<path d="M22.4375 40.5558C23.183 40.6124 23.9293 40.6691 24.6748 40.7258C24.6031 41.179 24.718 41.6181 24.7318 42.0714C23.8715 42.1139 22.9972 42.1139 22.1508 41.9722C22.251 41.5048 22.1793 41.0091 22.4375 40.5558Z" fill="#888888"/>
<path d="M32.9627 39.0118C32.4609 38.9976 32.3313 38.5302 32.1024 38.2469C31.8873 37.9778 31.6576 37.8929 31.3708 37.8645C31.1842 37.8504 31.0123 37.8362 30.8689 37.7229C31.0269 37.5954 31.1842 37.4679 31.3561 37.3263C31.9297 37.3688 32.4747 37.3546 32.891 36.8731C33.2202 37.2838 33.6504 37.5954 34.0089 37.9778C34.0236 38.1337 33.9233 38.2328 33.8231 38.3461C33.7221 38.4594 33.5649 38.5302 33.5502 38.7143C33.2919 38.6861 33.1917 38.9551 32.9627 39.0118Z" fill="#E3E3E3"/>
<path d="M22.4372 40.5557C22.1789 40.9948 22.2506 41.5047 22.1504 41.9862C21.4334 41.9438 20.745 41.788 20.0712 41.5755C20.2577 41.0939 20.358 40.584 20.5877 40.1166C21.1752 40.3433 21.8204 40.4141 22.4372 40.5557Z" fill="#9C9C9C"/>
<path d="M14.207 38.3603C13.9487 38.2187 13.8053 37.9495 13.49 37.822C13.1454 37.6804 13.1886 37.043 13.5039 36.8165C13.6473 36.7173 13.7768 36.604 13.9055 36.4907C14.1353 36.2782 14.1353 36.2782 14.981 36.0799C15.0242 36.0799 15.0527 36.0941 15.0959 36.0941C15.1676 36.434 15.4829 36.5898 15.6841 36.8306C15.6841 36.8731 15.698 36.9297 15.698 36.9722C15.0959 37.1564 14.7806 37.7371 14.2787 38.0628C14.1638 38.1053 14.207 38.247 14.207 38.3603Z" fill="#F1F1F1"/>
<path d="M24.7316 42.0855C24.7316 41.6322 24.6029 41.1931 24.6746 40.7399C25.0762 40.5558 25.5203 40.6549 25.9366 40.584C26.1655 40.5415 26.4091 40.4566 26.6535 40.4991C26.6674 40.5699 26.682 40.6407 26.6959 40.7115C26.7106 41.0939 26.9974 41.4481 26.8108 41.8588C26.1224 42.0005 25.4347 42.0855 24.7316 42.0855Z" fill="#9C9C9C"/>
<path d="M17.5484 37.7654C17.4188 37.8929 17.2469 37.8221 17.0889 37.8363C17.0033 37.8504 16.8738 37.7938 16.8314 37.9213C16.8021 38.0063 16.9031 38.0629 16.9748 38.1054C17.075 38.162 17.1606 38.2187 17.1606 38.3462C17.0465 38.3462 16.917 38.3178 16.8453 38.417C16.5153 38.8277 16.2147 39.2526 15.8847 39.6776C15.4977 39.6209 15.2965 39.281 14.9958 39.0827C14.9811 38.9269 15.0529 38.8136 15.1677 38.7427C15.5116 38.5019 15.7266 38.1479 16.0134 37.8504C16.1715 37.6805 16.1861 37.5246 16.1144 37.3264C16.6017 37.3547 17.0889 37.3547 17.5052 37.6805H17.5337C17.5623 37.7088 17.5484 37.7371 17.5484 37.7654Z" fill="#E3E3E3"/>
<path d="M17.9065 38.8702C18.2072 39.111 18.6373 39.111 18.8671 39.451C18.8809 39.5784 18.8093 39.6634 18.7376 39.7767C18.5086 40.145 18.265 40.499 18.1933 40.9382C17.7199 40.839 17.3036 40.6265 16.9313 40.3433C17.003 39.6776 17.5187 39.3093 17.9065 38.8702Z" fill="#C9C9C9"/>
<path d="M16.1283 37.3264C16.2 37.5247 16.1861 37.6664 16.0281 37.8505C15.7413 38.1479 15.5262 38.502 15.1823 38.7428C15.0675 38.8278 14.9958 38.9411 15.0097 39.0827C14.7522 38.8278 14.4076 38.6578 14.1925 38.3462C14.1925 38.2329 14.164 38.1054 14.2642 38.0346C14.7807 37.723 15.0814 37.1422 15.6842 36.944C15.8415 37.0856 15.9849 37.2131 16.1283 37.3264Z" fill="#E7EAE5"/>
<path d="M12.8152 30.4426C12.8731 30.7826 12.9155 31.1225 12.9733 31.4624C12.5863 31.4483 12.2131 31.5192 11.84 31.5899C11.5108 31.6466 11.2094 31.7882 10.8655 31.7599C10.6928 31.3633 10.7221 30.9243 10.679 30.5135C10.8077 30.5985 10.8655 30.7826 11.0945 30.7401C11.6681 30.6268 12.2417 30.5418 12.8152 30.4426Z" fill="#BCBCBC"/>
<path d="M11.6689 24.3522C12.1562 24.5505 12.6434 24.7488 13.1314 24.9187C13.2887 24.9754 13.4182 25.1312 13.6047 25.0887C13.5038 25.3579 13.4035 25.6269 13.3033 25.896C13.0451 25.9385 12.8161 25.811 12.6149 25.7119C12.2996 25.5561 11.9557 25.5703 11.6543 25.4145C11.3675 25.2587 11.3675 25.6553 11.1809 25.6836C11.2958 25.2304 11.4245 24.763 11.6689 24.3522Z" fill="#BCBCBC"/>
<path d="M17.9069 38.8702C17.5191 39.3094 17.0033 39.6918 16.9455 40.3433C16.5446 40.2158 16.2 39.9892 15.9132 39.6918C16.2285 39.2669 16.5446 38.8419 16.8738 38.4312C16.9455 38.332 17.075 38.3745 17.1899 38.3603C17.4474 38.4737 17.7203 38.6153 17.9069 38.8702Z" fill="#D9D9D9"/>
<path d="M14.3071 35.046C13.9201 35.2868 13.5184 35.5134 13.1453 35.7825C12.5146 36.2358 12.113 36.0658 11.9843 35.2726C12.1847 35.2443 12.3566 35.131 12.5146 35.046C12.9595 34.7769 13.4752 34.6352 13.8622 34.267C14.0056 34.5361 14.2207 34.7486 14.3071 35.046Z" fill="#F1F1F1"/>
<path d="M15.7843 21.732C15.6124 21.9302 15.4397 22.1285 15.2678 22.3269C14.8376 22.2844 14.5076 22.0294 14.207 21.7461C13.9772 21.5337 13.719 21.3778 13.3898 21.4203C13.49 21.1654 13.6904 20.9813 13.8623 20.7829C14.0489 20.5847 14.2208 20.4855 14.5369 20.7263C14.8954 21.0096 15.1529 21.3778 15.5407 21.6186C15.6262 21.6753 15.6979 21.732 15.7843 21.732Z" fill="#F1F1F1"/>
<path d="M27.5565 40.2584C27.9582 40.1167 28.3452 39.975 28.7468 39.8334C28.7468 40.0034 28.8047 40.145 28.8764 40.2866C29.0336 40.5841 29.177 40.8674 29.12 41.2214C28.7468 41.3914 28.3598 41.5472 27.9297 41.6039C27.8726 41.1223 27.5712 40.7258 27.5565 40.2584Z" fill="#BCBCBC"/>
<path d="M14.2785 23.7857C13.8914 23.5591 13.4898 23.3467 13.1167 23.0917C12.9016 22.9501 12.7011 22.8509 12.4429 22.8368C12.5577 22.5252 12.7443 22.2703 12.9594 22.0294C13.2315 22.1994 13.533 22.341 13.8051 22.4969C14.1204 22.681 14.4219 22.9501 14.8374 22.9218C14.6369 23.2051 14.4504 23.4883 14.2785 23.7857Z" fill="#D9D9D9"/>
<path d="M12.8161 30.4427C12.2426 30.5418 11.669 30.6268 11.0954 30.7402C10.8657 30.7826 10.8225 30.5985 10.6791 30.5135C10.636 30.2727 10.636 30.0178 10.6653 29.777C11.3676 29.7486 12.056 29.7204 12.7583 29.692C12.83 29.947 12.8161 30.1878 12.8161 30.4427Z" fill="#B1B1B1"/>
<path d="M10.8658 31.76C11.2096 31.7883 11.5257 31.6467 11.841 31.5901C12.2134 31.5192 12.5865 31.4484 12.9736 31.4626C13.0314 31.6467 13.0738 31.845 13.1316 32.0291C13.1316 32.0858 13.117 32.1283 13.117 32.185C12.5719 32.1991 12.0847 32.4682 11.5681 32.5674C11.3823 32.6099 11.2096 32.624 11.0238 32.624C10.9229 32.3549 10.8511 32.0716 10.8658 31.76Z" fill="#C9C9C9"/>
<path d="M13.8622 34.267C13.4752 34.6352 12.9594 34.7911 12.5146 35.046C12.3427 35.1451 12.1847 35.2585 11.9842 35.2726C11.7977 35.0035 11.6689 34.7202 11.6111 34.3945C12.1276 34.3803 12.5431 34.0687 13.0165 33.8987C13.2169 33.8279 13.432 33.7571 13.6332 33.6579C13.7049 33.7996 13.7905 33.9554 13.8622 34.097C13.8622 34.1537 13.8622 34.2103 13.8622 34.267Z" fill="#E7EAE5"/>
<path d="M14.8236 22.9074C14.4073 22.9358 14.1066 22.6667 13.7905 22.4825C13.5037 22.3126 13.217 22.1851 12.9448 22.0151C13.045 21.7744 13.1884 21.5761 13.3897 21.4344C13.7188 21.3777 13.9632 21.5477 14.2068 21.7602C14.5222 22.0293 14.8375 22.2843 15.2677 22.3409C15.1243 22.525 14.9809 22.7233 14.8236 22.9074Z" fill="#E7EAE5"/>
<path d="M18.207 40.924C18.2934 40.4849 18.5223 40.1309 18.7521 39.7626C18.8238 39.6635 18.8808 39.5643 18.8808 39.4368C19.1823 39.4793 19.4405 39.6351 19.6988 39.8051C19.6556 40.0317 19.4976 40.2158 19.4259 40.4283C19.3256 40.7257 19.1105 40.9948 19.1822 41.3206C18.8384 41.2356 18.4938 41.1507 18.207 40.924Z" fill="#BCBCBC"/>
<path d="M29.1053 41.2073C29.1631 40.8673 29.0051 40.5699 28.8617 40.2725C28.79 40.1309 28.7329 39.9892 28.7329 39.8192C28.948 39.6492 29.2055 39.5642 29.4784 39.5218C29.8801 39.8475 30.1669 40.23 30.2093 40.7541C29.8508 40.9098 29.5069 41.1365 29.1053 41.2073Z" fill="#C9C9C9"/>
<path d="M19.1824 41.3347C19.1107 40.9948 19.3258 40.7256 19.4261 40.4424C19.4978 40.23 19.6558 40.0458 19.699 39.8192C19.9996 39.9183 20.2864 40.0316 20.5879 40.1308C20.3581 40.5982 20.2579 41.1081 20.0713 41.5897C19.7414 41.5613 19.4692 41.448 19.1824 41.3347Z" fill="#B1B1B1"/>
<path d="M27.5562 40.2583C27.5708 40.7257 27.8723 41.1222 27.9293 41.5896C27.5709 41.7171 27.1977 41.8304 26.8107 41.8587C27.0119 41.4622 26.7251 41.0939 26.6958 40.7115C26.6958 40.6407 26.6673 40.5698 26.6534 40.4991C26.9541 40.4141 27.2409 40.2724 27.5562 40.2583Z" fill="#B1B1B1"/>
<path d="M30.209 40.7682C30.1519 40.2441 29.8798 39.8475 29.4781 39.5359C29.6354 39.3092 29.9083 39.2526 30.1234 39.1251C30.209 39.0826 30.3239 39.1251 30.3524 39.1818C30.5389 39.5925 30.9838 39.8616 31.0269 40.3433C30.7826 40.5132 30.5389 40.6973 30.209 40.7682Z" fill="#D9D9D9"/>
<path d="M13.8622 34.267C13.8622 34.2103 13.8484 34.1536 13.8484 34.1111C14.092 34.3378 14.4073 34.3378 14.7087 34.3378C14.9377 34.621 15.1243 34.9327 15.2538 35.2726C14.9955 35.3717 14.7373 35.1026 14.479 35.3009C14.3641 35.2584 14.3641 35.1309 14.2924 35.0602C14.2207 34.7485 14.0056 34.536 13.8622 34.267Z" fill="#888888"/>
<path d="M14.4939 35.2869C14.7522 35.1027 15.0097 35.3576 15.2679 35.2585C15.5832 35.4993 15.7698 35.8392 15.9849 36.1508C15.6981 36.0375 15.3974 35.995 15.096 36.0942C15.0528 36.0942 15.0243 36.08 14.9811 36.08C14.8377 35.7968 14.5941 35.5843 14.4939 35.2869Z" fill="#9C9C9C"/>
<path d="M23.6993 6.15159C24.0147 5.99579 24.3446 6.06661 24.6746 6.08077C25.6783 6.15159 26.6536 6.39237 27.5995 6.71815C27.6427 6.73231 27.6712 6.7748 27.6997 6.80313C27.6997 6.84562 27.6997 6.87395 27.6997 6.91644C26.4092 6.43487 25.0762 6.19408 23.6993 6.25074C23.6993 6.23658 23.6993 6.19408 23.6993 6.15159Z" fill="#9C9C9C"/>
<path d="M23.6995 6.15159C23.6995 6.19408 23.6995 6.23657 23.6995 6.27907C23.341 6.32156 22.9679 6.36405 22.6094 6.40654C22.0073 6.47736 21.4623 6.74647 20.8887 6.85979C20.8463 6.78897 20.7746 6.78897 20.7029 6.76064C21.3482 6.42071 22.0651 6.32156 22.7821 6.19408C22.9825 6.16576 23.1976 6.15159 23.3981 6.13743C23.4559 6.20825 23.4991 6.19408 23.5415 6.12327C23.5993 6.13743 23.6425 6.13743 23.6995 6.15159Z" fill="#888888"/>
<path d="M27.6996 6.93066C27.6996 6.88817 27.6996 6.85984 27.6996 6.81734C28.1876 6.94482 28.6317 7.14312 29.048 7.4264C29.0194 7.46889 28.9763 7.49721 28.9477 7.5397C28.5314 7.32724 28.1159 7.12896 27.6996 6.93066Z" fill="#888888"/>
<path d="M28.9478 7.52551C28.9763 7.48302 29.0195 7.45469 29.048 7.4122C29.1197 7.45469 29.2052 7.49718 29.2769 7.53968C29.2484 7.56801 29.2199 7.59634 29.1913 7.62466C29.1197 7.6105 29.0333 7.56801 28.9478 7.52551Z" fill="#696969"/>
<path d="M20.3583 7.08641C20.3583 7.02975 20.3583 6.9731 20.3583 6.90228C20.3868 6.84563 20.4446 6.83146 20.5017 6.84563C20.5017 6.90228 20.5017 6.95893 20.5163 7.02975C20.4732 7.08641 20.4161 7.08641 20.3583 7.08641Z" fill="#888888"/>
<path d="M23.5413 6.12337C23.4989 6.19419 23.4558 6.20835 23.3979 6.13753C23.4411 6.08088 23.4989 6.08088 23.5413 6.12337Z" fill="#9C9C9C"/>
<path d="M20.5014 7.02983C20.5014 6.97317 20.5014 6.91652 20.4875 6.8457C20.53 6.83153 20.5592 6.81737 20.6016 6.8032C20.6309 6.83153 20.6595 6.87403 20.688 6.90236C20.6309 6.94485 20.5731 6.98734 20.5014 7.02983Z" fill="#696969"/>
<path d="M10.7792 27.5108C10.9087 27.6099 10.8224 27.6383 10.7222 27.6665C10.7222 27.6099 10.7222 27.5533 10.7792 27.5108Z" fill="#B1B1B1"/>
<path d="M20.7028 6.76066C20.7745 6.78899 20.8462 6.78899 20.8886 6.85981C20.8316 6.87398 20.7745 6.88814 20.7167 6.9023C20.6882 6.87398 20.6596 6.83148 20.6311 6.80315C20.645 6.78899 20.6735 6.77482 20.7028 6.76066Z" fill="#696969"/>
<path d="M52.7366 23.9982C52.4067 24.3947 52.0767 24.8055 51.7475 25.2021C51.3027 25.7545 51.1739 25.7403 50.8293 25.1029C50.6289 24.7347 50.4277 24.3522 50.2272 23.9982C50.0692 24.0265 50.0985 24.1398 50.0838 24.2106C50.0268 24.6214 49.969 25.0321 49.9258 25.4429C49.8541 26.1227 49.41 26.4202 48.7362 26.2644C48.5782 26.2219 48.5782 26.1369 48.5928 26.0236C48.7501 24.763 48.9081 23.5024 49.0654 22.256C49.0801 22.1852 49.0801 22.1285 49.1803 22.086C49.5249 21.9444 50.1555 22.1285 50.3706 22.4543C50.6574 22.8792 50.9157 23.3183 51.2025 23.7573C51.4607 24.1398 51.4607 24.1398 51.7614 23.7998C52.1484 23.3608 52.5647 22.9359 52.9371 22.4826C53.267 22.0577 53.7118 22.0719 54.1706 22.086C54.3286 22.086 54.3425 22.1852 54.3286 22.3126C54.1852 23.4316 54.0557 24.5364 53.8984 25.6553C53.8267 26.1652 53.1953 26.4768 52.722 26.2786C52.5647 26.2077 52.6217 26.0944 52.6364 25.9953C52.7081 25.3438 52.7937 24.6922 52.8654 24.0406C52.7937 24.0265 52.7651 24.0123 52.7366 23.9982Z" fill="#F6FCEC"/>
<path d="M68.3952 26.3636C67.8362 26.3777 67.3197 26.2927 66.8325 25.9953C66.474 25.7828 66.2874 25.457 66.2589 25.0605C66.2157 24.4372 66.3021 23.8141 66.5025 23.2192C66.7176 22.6101 67.1763 22.2702 67.7784 22.1002C68.4668 21.9161 69.1699 21.902 69.8722 22.0719C70.6463 22.256 71.0911 22.7943 71.0479 23.5733C71.034 23.9557 70.9762 24.3523 70.9045 24.7347C70.718 25.6695 70.102 26.1794 69.0265 26.3211C68.8253 26.3494 68.6102 26.3494 68.3952 26.3636ZM68.4668 25.6129C69.0982 25.6129 69.4706 25.3721 69.6286 24.8622C69.7574 24.4231 69.8005 23.9557 69.8152 23.4883C69.8291 23.2333 69.7289 23.0067 69.4991 22.865C68.9402 22.4685 67.9218 22.7801 67.6782 23.4174C67.5348 23.7999 67.5209 24.2106 67.4777 24.6072C67.4346 25.3579 67.6928 25.627 68.4668 25.6129Z" fill="#F6FCEC"/>
<path d="M45.1366 26.3635C44.6062 26.3777 44.1043 26.3068 43.6309 26.0377C43.1861 25.7828 42.9572 25.4003 42.9572 24.9046C42.9572 24.3947 43.0288 23.8848 43.1576 23.3891C43.3441 22.7092 43.8175 22.2843 44.5059 22.1144C45.2229 21.9302 45.9537 21.916 46.6707 22.1144C47.2874 22.2701 47.703 22.7092 47.7461 23.3183C47.7893 23.9415 47.7176 24.5647 47.5025 25.1595C47.2011 25.9669 46.4988 26.2502 45.6955 26.3635C45.5097 26.3635 45.3231 26.3635 45.1366 26.3635ZM45.1797 25.6128C45.8103 25.6128 46.1974 25.372 46.3408 24.848C46.4556 24.4089 46.5134 23.9698 46.5273 23.5166C46.5419 23.2758 46.4703 23.0492 46.269 22.8933C45.6816 22.4259 44.563 22.7659 44.3764 23.4882C44.2762 23.8423 44.2477 24.2106 44.2045 24.5647C44.1182 25.3579 44.3764 25.6269 45.1797 25.6128Z" fill="#F6FCEC"/>
<path d="M57.1814 26.3636C56.651 26.3777 56.1492 26.3069 55.6905 26.0378C55.2742 25.7828 55.0591 25.4288 55.0591 24.9471C55.0591 24.3947 55.1169 23.8423 55.2742 23.3183C55.4607 22.6951 55.9056 22.2985 56.5215 22.1285C57.2385 21.9302 57.9555 21.9019 58.6871 22.086C59.5189 22.2985 59.9491 22.9075 59.8489 23.7432C59.8196 23.9982 59.7772 24.2531 59.7479 24.5081C59.6338 25.4995 59.1026 26.0803 58.1282 26.2927C57.7982 26.3494 57.4968 26.3636 57.1814 26.3636ZM57.2678 25.627C57.8984 25.627 58.2716 25.3863 58.4288 24.8621C58.5722 24.409 58.6007 23.9273 58.6007 23.4599C58.6007 23.2333 58.529 23.035 58.3286 22.8934C57.7265 22.4685 56.6511 22.8084 56.4645 23.5166C56.3781 23.8423 56.3496 24.1823 56.2926 24.5222C56.1777 25.3013 56.4645 25.627 57.2678 25.627Z" fill="#F6FCEC"/>
<path d="M62.7022 22.086C63.1177 22.1001 63.706 22.0435 64.2649 22.2418C64.9395 22.4684 65.2833 22.8933 65.2548 23.6016C65.2401 24.0548 65.1969 24.508 65.0828 24.9471C64.9101 25.6412 64.4661 26.0519 63.7777 26.1936C62.8888 26.3777 61.9852 26.2927 61.0817 26.2643C60.7517 26.2502 60.6084 26.0519 60.6515 25.7119C60.7518 24.9896 60.8381 24.2531 60.9244 23.5307C60.9383 23.3608 60.9961 23.2758 61.1966 23.2616C61.9999 23.2049 62.2289 23.5024 62.1001 24.1822C62.0284 24.5222 62.0138 24.8905 61.9706 25.2304C61.9421 25.4287 61.9999 25.5278 62.215 25.5278C62.5018 25.5278 62.7886 25.5278 63.0607 25.4712C63.6196 25.3437 63.8208 25.1313 63.9211 24.5647C63.9496 24.3664 63.9781 24.154 64.0213 23.9556C64.1647 23.1483 63.8062 22.8933 63.0607 22.8367C62.602 22.8084 62.1433 22.8225 61.6838 22.8225C61.4117 22.8225 61.2536 22.6809 61.1819 22.4259C61.1249 22.1993 61.1681 22.0719 61.4402 22.086C61.7987 22.1001 62.1718 22.086 62.7022 22.086Z" fill="#F6FCEC"/>
<path d="M41.3367 22.086C41.6805 22.086 42.0252 22.086 42.369 22.086C42.6126 22.086 42.6419 22.1851 42.5409 22.3834C42.4122 22.6668 42.2117 22.8367 41.8818 22.8367C41.5086 22.8367 41.1363 22.8367 40.7778 22.8509C40.0608 22.8792 39.7309 23.1483 39.5875 23.8565C39.5297 24.1397 39.5011 24.4372 39.4726 24.7205C39.4441 25.1879 39.6307 25.4287 40.1032 25.4995C40.6629 25.5845 41.2365 25.5278 41.8101 25.5278C42.1971 25.5278 42.2403 25.5987 42.0537 25.9527C41.9388 26.1511 41.7816 26.2785 41.5518 26.2785C40.8634 26.2785 40.1749 26.3493 39.4873 26.2077C38.6269 26.0236 38.2106 25.4995 38.2969 24.6355C38.354 24.1115 38.354 23.5591 38.6269 23.0775C38.9854 22.4259 39.5875 22.1851 40.2759 22.1144C40.6344 22.0719 40.9929 22.1144 41.3514 22.1144C41.3367 22.1001 41.3367 22.086 41.3367 22.086Z" fill="#F6FCEC"/>
<path d="M37.6234 27.525C37.5224 27.525 37.4221 27.4825 37.4368 27.3834C37.4507 27.0717 37.3219 26.8026 37.2649 26.5052C37.15 25.9386 37.0783 25.3438 36.8201 24.8055C36.7769 24.7064 36.7052 24.6497 36.5903 24.6497C36.5333 24.5222 36.4469 24.3947 36.4045 24.2531C36.1177 23.5024 35.7446 22.8084 35.2713 22.1569C35.1425 21.9019 34.9991 21.6611 34.8126 21.4203C34.6121 21.1512 34.3107 20.9246 34.2104 20.5705C34.2104 20.4714 34.2243 20.3722 34.2243 20.2589C35.3291 21.4062 36.1316 22.7375 36.7483 24.1823C37.1785 25.2729 37.4368 26.3918 37.6234 27.525Z" fill="#EAF8D4"/>
<path d="M15.9847 36.1507C15.7696 35.8249 15.583 35.4992 15.2677 35.2584C15.139 34.9185 14.9377 34.6069 14.7227 34.3236C14.479 33.757 14.2354 33.2046 13.9918 32.638C13.9201 32.0857 13.7482 31.5475 13.6618 30.9951C13.3604 29.0121 13.5901 27.1 14.3788 25.2728C15.6123 22.4259 17.7339 20.4713 20.6881 19.4231C21.9355 18.9699 23.2407 18.7575 24.5744 18.8141C27.2842 18.9416 29.6502 19.8905 31.6292 21.7602C33.4647 23.4882 34.5109 25.5986 34.8694 28.0489C35.0845 29.5079 34.884 30.9384 34.5402 32.3548C34.5109 32.4539 34.4824 32.5531 34.4392 32.6664C34.3104 33.0205 34.1385 33.3604 34.0807 33.7428C33.7939 34.097 33.5935 34.4935 33.4216 34.9185C33.235 35.1168 33.0631 35.315 32.9628 35.57C32.6899 35.9099 32.4032 36.2498 32.131 36.5756C31.8442 36.8022 31.5713 37.0289 31.3562 37.3263C31.199 37.4538 31.0409 37.5813 30.869 37.7229C30.8258 37.7513 30.7827 37.7938 30.7403 37.822C30.6824 37.822 30.6393 37.8504 30.6107 37.907C30.4103 37.992 30.2237 38.1053 30.0657 38.2753C30.0372 38.3036 30.0086 38.3178 29.9801 38.3461C29.9084 38.3461 29.8653 38.3744 29.8367 38.4311C28.9478 38.8985 28.0443 39.3376 27.0406 39.5925C23.7564 40.414 20.7313 39.8758 17.949 37.9495C17.8634 37.8929 17.7632 37.8362 17.6622 37.7795C17.6483 37.7229 17.6051 37.6946 17.5481 37.6946C17.2035 37.383 16.845 37.0714 16.5012 36.7597C16.4434 36.5898 16.3 36.5048 16.1712 36.4057C16.1566 36.3348 16.128 36.2782 16.0425 36.2641C16.0278 36.2073 16.0132 36.1791 15.9847 36.1507ZM20.143 20.273C20.0575 20.2872 19.9711 20.2872 19.8848 20.3155C18.8093 20.7687 17.8349 21.392 17.003 22.2276C16.6731 22.5675 16.3863 22.9358 16.0849 23.2899C15.6408 23.814 15.1243 24.3664 14.9239 24.9895C14.6941 25.6836 14.2208 26.2785 14.2208 27.0859C14.2208 27.5674 14.0203 28.0914 13.9633 28.6013C13.7906 29.8761 14.035 31.1083 14.3503 32.3406C14.4652 32.7939 14.7658 33.1622 14.8953 33.6154C15.0094 34.012 15.196 34.3802 15.4542 34.7344C15.6408 34.9893 15.913 35.1734 16.0425 35.4425C16.2576 35.9099 16.6446 36.2357 16.9599 36.6181C17.2181 36.9156 17.5766 37.128 17.8773 37.3971C18.1934 37.6804 18.5372 37.9779 18.9242 38.1478C19.598 38.4311 20.2579 38.7711 20.9602 39.026C21.9355 39.3801 22.9392 39.4792 23.943 39.5217C25.1765 39.5784 26.3806 39.4084 27.5563 38.9693C28.2448 38.7143 28.9186 38.4311 29.55 38.077C30.4242 37.5954 31.1273 36.9014 31.8296 36.2073C32.6468 35.4142 33.1918 34.4369 33.6652 33.4171C33.7939 33.1197 34.0668 32.8789 34.0807 32.5389C34.0954 32.0574 34.2534 31.6041 34.3821 31.1508C34.554 30.5702 34.5687 29.9753 34.5826 29.4087C34.5972 28.8138 34.554 28.2048 34.3821 27.6099C34.2958 27.2841 34.3251 26.9017 34.1524 26.6326C33.8517 26.1652 33.6937 25.6411 33.4647 25.1454C33.2635 24.7205 33.1486 24.2672 32.8333 23.8565C32.3746 23.2616 31.9298 22.6667 31.3994 22.1285C31.1411 21.8735 30.7688 21.746 30.5391 21.5194C30.0372 21.0237 29.4351 20.7262 28.8615 20.358C28.7181 20.2588 28.5747 20.2022 28.4313 20.3438C28.2879 20.273 28.1299 20.2022 27.9865 20.1172C27.9295 19.9897 27.9441 19.7489 27.6858 19.9189C27.0976 19.8056 26.5526 19.5506 25.9505 19.4374C24.8465 19.2249 23.7425 19.1965 22.6239 19.4231C21.9501 19.5648 21.3048 19.7773 20.6449 19.9897C20.3867 19.8056 20.3296 20.0039 20.2726 20.188C20.2579 20.2447 20.2009 20.273 20.143 20.273Z" fill="#44A903"/>
<path d="M16.2143 18.7433C16.0424 18.8425 15.9414 19.0408 15.7125 19.0266C15.7263 17.4544 15.5976 15.8681 15.8412 14.2959C15.9992 13.3469 16.3146 12.4546 16.7162 11.6047C16.7879 11.4348 16.8735 11.279 16.9598 11.1232C17.0315 11.0524 17.1032 10.9815 17.1749 10.8966C17.2034 11.0807 17.1464 11.2365 17.0747 11.3923C16.6013 12.3129 16.3862 13.3044 16.1997 14.3101C16.1858 14.395 16.1426 14.48 16.2428 14.5366C16.3577 14.5934 16.4294 14.4942 16.4726 14.4092C16.5728 14.2109 16.6584 14.0126 16.7301 13.8002C17.0461 12.9503 17.5334 12.1855 18.0638 11.4348C18.4223 10.9532 18.8671 10.5425 19.2541 10.0892C19.2973 10.075 19.3543 10.075 19.3975 10.0467C20.0574 9.45183 20.8314 9.05525 21.6633 8.74364C22.9538 8.26207 24.2582 8.14875 25.6066 8.38954C27.069 8.64449 28.3881 9.23938 29.4921 10.245C29.5353 10.3442 29.607 10.415 29.7218 10.4575C29.765 10.4858 29.822 10.5141 29.8652 10.5283C29.8652 10.6274 29.9084 10.6841 29.9801 10.7549C30.7973 11.4773 31.2706 12.4121 31.7147 13.3752C31.9159 13.8002 32.131 14.2251 32.2166 14.6783C32.2883 15.089 32.4178 15.4715 32.518 15.8539C32.5612 16.0097 32.6182 16.0947 32.7901 16.0806C32.8479 17.1286 32.8194 18.1768 32.8048 19.2391C32.575 19.2532 32.4895 19.0975 32.3746 18.9416C32.3029 18.4317 32.2312 17.9218 32.1595 17.4119C32.1163 16.9304 31.9444 16.463 31.8157 15.9956C31.801 15.9247 31.7864 15.7973 31.6723 15.8114C31.5289 15.8256 31.5713 15.9531 31.5713 16.0522C31.5713 16.4488 31.5713 16.8596 31.5713 17.2561C31.5713 17.5111 31.5713 17.766 31.5713 18.0068C31.5713 18.1202 31.643 18.2759 31.4857 18.3326C31.3277 18.3893 31.2991 18.2051 31.2128 18.1343C31.1989 17.1145 31.2421 16.0806 31.1704 15.0608C31.0409 13.3752 30.3386 11.9588 29.1482 10.7832C29.0912 10.7124 29.0334 10.6558 28.9763 10.5849C28.9332 10.5283 28.9046 10.4575 28.8615 10.4008C27.6997 9.38101 26.3521 8.75781 24.8179 8.63033C23.1404 8.48869 21.5916 8.94193 20.2293 9.9334C19.7706 10.2592 19.3258 10.6133 19.0244 11.0948C18.1787 12.0013 17.6914 13.0919 17.4185 14.2817C17.1749 15.3157 17.2751 16.3638 17.2613 17.3978C17.2466 18.0777 17.2613 18.0777 17.8487 17.7944C17.8919 17.7802 17.9489 17.766 17.9921 17.7519C18.2789 18.2759 18.4223 18.8708 18.8093 19.3524C18.3652 19.6356 17.9351 19.919 17.4902 20.2023C17.4471 19.5507 17.1179 19.055 16.5867 18.6867C16.5867 18.6442 16.5867 18.5592 16.616 18.5451C17.003 18.3326 16.9883 17.9643 16.9745 17.596C16.9598 17.4261 16.9745 17.2561 16.9745 17.0861C16.9745 16.8596 16.9598 16.6187 16.9883 16.3921C17.0169 16.1655 17.0747 15.9389 17.06 15.7123C17.0462 15.6132 17.0169 15.5423 16.9166 15.5282C16.8311 15.514 16.8018 15.5848 16.8018 15.6414C16.7301 16.1513 16.4726 16.633 16.4726 17.157C16.3577 17.7094 16.286 18.2193 16.2143 18.7433Z" fill="#E3E3E3"/>
<path d="M34.2101 20.5847C34.3103 20.9388 34.5971 21.1654 34.8122 21.4345C34.9841 21.6753 35.1421 21.9161 35.2709 22.171C35.2855 22.5534 35.1136 22.7234 34.712 22.78C34.4969 22.8084 34.2101 23.0492 34.2956 23.2192C34.4969 23.6157 34.1816 23.4458 34.052 23.5024C33.4068 22.5251 32.6466 21.647 31.7863 20.8538C31.9443 20.2448 32.3028 19.7773 32.9049 19.5224C33.1632 19.7065 33.4353 19.8906 33.6936 20.0748C33.7938 20.3014 33.9086 20.5422 34.2101 20.5847Z" fill="#E3E3E3"/>
<path d="M26.7393 18.3468C26.1086 18.2759 25.4919 18.2052 24.8613 18.1343C24.7179 18.1202 24.5598 18.1627 24.445 18.0635C24.3162 17.7094 24.4596 17.3553 24.445 17.0012C24.4311 16.7746 24.3016 16.5338 24.445 16.3072C25.0471 16.2363 25.6353 16.3922 26.2235 16.4488C26.2374 16.4913 26.2659 16.5196 26.2952 16.463C26.424 16.4347 26.5388 16.4488 26.6537 16.4913C26.6822 16.5763 26.7254 16.6188 26.811 16.5338C26.9112 16.5196 27.0122 16.548 27.1124 16.5905C27.0839 16.7038 27.0546 16.8171 27.0407 16.9446C26.9405 17.412 26.7678 17.8652 26.7393 18.3468Z" fill="#888888"/>
<path d="M34.0521 23.5024C34.167 23.4457 34.4823 23.6157 34.2957 23.2191C34.2101 23.0349 34.4969 22.7942 34.712 22.78C35.1137 22.7375 35.2856 22.5534 35.271 22.171C35.7443 22.8083 36.1175 23.5166 36.4042 24.2672C36.4613 24.4089 36.533 24.5222 36.59 24.6638C36.6193 24.763 36.6332 24.8621 36.6617 24.9613C36.4759 24.9754 36.3179 24.9188 36.1892 24.8055C36.0458 24.678 35.9309 24.6214 35.9309 24.8904C35.9309 25.117 35.816 25.1879 35.6009 25.1879C35.3712 25.1879 35.1276 25.1595 34.8986 25.2162C34.884 25.202 34.8839 25.1879 34.8839 25.1737C34.9703 25.0604 34.9271 24.9896 34.7976 24.9754C34.554 24.4655 34.2957 23.984 34.0521 23.5024Z" fill="#D9D9D9"/>
<path d="M18.7956 19.3806C18.4086 18.8991 18.2652 18.3042 17.9784 17.7802C18.0069 17.7235 18.0354 17.681 18.064 17.6243C18.1935 17.6385 18.2937 17.596 18.4086 17.5394C18.9821 17.3269 19.5264 17.0295 20.1293 16.8878C19.9713 17.1144 20.0283 17.3269 20.1 17.5677C20.201 17.9359 20.3582 18.2901 20.5016 18.6441C19.9427 18.8991 19.3692 19.1399 18.7956 19.3806Z" fill="#D9D9D9"/>
<path d="M34.9125 25.2021C35.1422 25.1454 35.3858 25.1738 35.6156 25.1738C35.8306 25.1738 35.9447 25.1029 35.9447 24.8763C35.9447 24.6072 36.0596 24.6639 36.203 24.7914C36.3325 24.9188 36.5044 24.9613 36.6764 24.9471C36.8914 25.5987 37.1065 26.2361 37.1929 26.9159C36.6332 26.9867 36.0881 27.1709 35.5146 27.1425C35.2995 26.5052 35.099 25.8536 34.9125 25.2021Z" fill="#C9C9C9"/>
<path d="M26.7389 18.3467C26.7674 17.8652 26.9401 17.4119 27.0257 16.9445C27.0542 16.8312 27.0835 16.7179 27.0974 16.5904C27.6139 16.647 28.0873 16.817 28.5745 16.9728C28.5892 17.0578 28.6177 17.1428 28.7179 17.0436C28.775 17.0578 28.8181 17.0861 28.8759 17.1003C28.7749 17.6952 28.4596 18.2051 28.2592 18.7575C27.7573 18.63 27.2554 18.4883 26.7389 18.3467Z" fill="#9C9C9C"/>
<path d="M24.4446 16.3213C24.3012 16.5479 24.4446 16.7887 24.4446 17.0154C24.4592 17.3694 24.3012 17.7235 24.4446 18.0776C23.8995 18.1201 23.3552 18.1768 22.8102 18.2193C22.8102 18.0918 22.7956 17.9502 22.767 17.8227C22.6807 17.3553 22.5951 16.8879 22.5951 16.4205C22.7238 16.4063 22.8387 16.4063 22.9675 16.3921C23.0391 16.4912 23.0823 16.4487 23.1255 16.3638C23.5557 16.3355 24.0005 16.3213 24.4446 16.3213Z" fill="#9C9C9C"/>
<path d="M37.4083 28.8281C37.6087 29.2388 37.4222 29.6355 37.379 30.032C37.379 30.0745 37.2934 30.1454 37.2502 30.1311C36.9064 30.1029 36.5618 30.3295 36.2033 30.117C36.0884 30.0462 35.9312 30.0462 35.8163 30.1311C35.7592 30.1736 35.7592 30.2728 35.8016 30.3295C35.888 30.4569 36.046 30.5136 36.1463 30.4853C36.4616 30.3861 36.7198 30.6269 37.0351 30.5703C37.2649 30.5278 37.3505 30.8535 37.3219 31.1085C36.7484 31.0377 36.1748 30.9668 35.6012 30.8819C35.6297 30.2161 35.6582 29.5646 35.6875 28.8989C36.275 28.9131 36.8486 28.9131 37.4083 28.8281Z" fill="#F1F1F1"/>
<path d="M32.145 17.4119C32.2167 17.9218 32.2884 18.4317 32.3601 18.9416C32.0733 18.8283 31.9445 18.9558 31.7579 19.1825C31.4858 19.5365 31.3139 19.919 31.0842 20.3014C30.7688 20.0889 30.4242 19.9331 30.1375 19.664C30.2955 19.4091 30.4242 19.14 30.5969 18.885C30.7688 18.6442 30.9693 18.4176 31.0271 18.1059C31.0842 18.1202 31.1273 18.1202 31.1844 18.1343C31.2707 18.2051 31.2993 18.3893 31.4573 18.3326C31.6007 18.2759 31.5429 18.1202 31.5429 18.0068C31.5575 17.7519 31.5429 17.4969 31.5429 17.2561C31.7441 17.1711 31.973 17.0154 32.0733 17.3836C32.0879 17.3978 32.1164 17.3978 32.145 17.4119Z" fill="#C9C9C9"/>
<path d="M31.0408 18.1201C30.9837 18.4317 30.7825 18.6583 30.6106 18.8991C30.4386 19.1399 30.2952 19.409 30.1519 19.6781C29.7502 19.4657 29.3632 19.2674 28.9615 19.055C29.3779 18.6017 29.5783 18.0352 29.7787 17.4686C30.0085 17.5111 30.195 17.681 30.4386 17.6952C30.5674 17.936 30.8835 17.9077 31.0408 18.1201Z" fill="#BCBCBC"/>
<path d="M35.6157 30.8818C36.1893 30.9527 36.7629 31.0235 37.3364 31.1085C37.2501 31.4484 37.2786 31.8025 37.1213 32.1283C36.5763 32.1141 36.0598 31.8025 35.4862 31.9016C35.4862 31.8309 35.4862 31.76 35.4862 31.6892C35.5726 31.6042 35.5579 31.5051 35.5294 31.4059C35.5294 31.236 35.544 31.0518 35.6157 30.8818Z" fill="#E7EAE5"/>
<path d="M22.5807 16.4062C22.5807 16.8879 22.6671 17.341 22.7526 17.8085C22.7819 17.9359 22.7958 18.0776 22.7958 18.2051C22.5522 18.2617 22.3086 18.1484 22.0789 18.2617C21.964 18.1059 21.7921 17.9926 21.7636 17.7518C21.7065 17.3553 21.6202 16.9728 21.5485 16.5904C21.8784 16.4771 22.2223 16.4062 22.5807 16.4062Z" fill="#B1B1B1"/>
<path d="M29.7788 17.4685C29.5784 18.0351 29.3779 18.6017 28.9616 19.0549C28.718 18.9841 28.4883 18.8991 28.2732 18.7716C28.4744 18.2192 28.7897 17.7093 28.8899 17.1144C29.2199 17.1569 29.5067 17.2986 29.7788 17.4685Z" fill="#B1B1B1"/>
<path d="M31.0985 20.3014C31.3136 19.9331 31.4855 19.5366 31.7723 19.1825C31.9589 18.9558 32.1023 18.8284 32.3744 18.9417C32.4746 19.0833 32.5749 19.2533 32.8046 19.2391C32.8331 19.3382 32.8763 19.4232 32.9048 19.5224C32.3027 19.7774 31.9589 20.2448 31.7862 20.8538C31.5572 20.6697 31.3275 20.4855 31.0985 20.3014Z" fill="#D9D9D9"/>
<path d="M37.4082 28.8281C36.8485 28.9131 36.2749 28.9131 35.7013 28.8989C35.6728 28.6298 35.6582 28.3607 35.6296 28.0915C36.1747 27.9924 36.7197 27.8933 37.2502 27.7941C37.3789 28.1482 37.3365 28.5023 37.4082 28.8281Z" fill="#E3E3E3"/>
<path d="M21.5484 16.5904C21.6201 16.9728 21.7204 17.3694 21.7635 17.7518C21.7921 17.9784 21.964 18.0917 22.0788 18.2617C21.7635 18.3326 21.4336 18.4033 21.1183 18.4883C21.0319 17.9076 20.7598 17.3835 20.6449 16.817C20.9317 16.7037 21.2185 16.562 21.5484 16.5904Z" fill="#BCBCBC"/>
<path d="M37.2647 27.8082C36.7197 27.9074 36.1746 28.0065 35.6443 28.1057C35.6011 27.794 35.544 27.4683 35.5009 27.1567C36.0744 27.185 36.6195 27.0009 37.1784 26.9301C37.2933 27.2134 37.2647 27.5108 37.2647 27.8082Z" fill="#D9D9D9"/>
<path d="M13.9919 32.6382C14.2356 33.2047 14.4792 33.7571 14.7228 34.3237C14.4221 34.3237 14.1068 34.3237 13.8624 34.0971C13.7907 33.9554 13.7051 33.7996 13.6334 33.658C13.5039 33.2047 13.2603 32.8082 13.2172 32.3266C13.332 32.3266 13.3467 32.5107 13.4901 32.4399C13.7052 32.3408 13.8624 32.4682 13.9919 32.6382Z" fill="#696969"/>
<path d="M35.4859 31.9016C36.0595 31.8024 36.5613 32.0999 37.1211 32.1282C37.1211 32.4398 37.1211 32.7514 36.906 33.0063C36.3894 32.8647 35.859 32.7089 35.3425 32.5673C35.3425 32.5106 35.3286 32.454 35.3286 32.3973C35.314 32.3548 35.3571 32.3123 35.2993 32.284C35.3286 32.1849 35.3572 32.0857 35.371 31.9866C35.4142 31.9866 35.4574 31.9582 35.4859 31.9016Z" fill="#E3E3E3"/>
<path d="M20.6448 16.8029C20.745 17.3694 21.0318 17.8935 21.1182 18.4742C20.9177 18.545 20.7312 18.6442 20.5161 18.6442C20.3727 18.2901 20.2146 17.9502 20.1144 17.5677C20.0574 17.3269 19.9995 17.1003 20.1429 16.8879C20.3148 16.8737 20.4729 16.8454 20.6448 16.8029Z" fill="#C9C9C9"/>
<path d="M35.2856 32.2699C35.3427 32.2982 35.2995 32.3407 35.3141 32.3832C35.1708 32.5106 35.1276 32.6665 35.1561 32.8506C35.1422 32.9214 35.1137 32.9923 35.0991 33.063C34.9842 33.318 34.8693 33.5588 34.7552 33.8137C34.5402 33.7288 34.3104 33.7854 34.0807 33.7429C34.1385 33.3605 34.3251 33.0205 34.4392 32.6665C34.4685 32.5673 34.5109 32.4681 34.5402 32.3549C34.7838 32.2557 34.9988 31.9582 35.2856 32.2699Z" fill="#696969"/>
<path d="M35.486 31.9016C35.4575 31.9582 35.4143 31.9725 35.3573 31.9725C35.2856 31.8591 35.3858 31.7741 35.429 31.675H35.4575H35.486C35.486 31.76 35.486 31.8308 35.486 31.9016Z" fill="#D9D9D9"/>
<path d="M16.4432 21.0238C16.4008 20.9671 16.3576 20.9104 16.3291 20.8538C16.3576 20.8397 16.3861 20.7972 16.4147 20.8113C16.5295 20.8255 16.5149 20.9247 16.5295 21.0096C16.4864 21.0096 16.4578 21.0096 16.4432 21.0238Z" fill="#FEFEFE"/>
<path d="M35.4861 31.6892H35.4576H35.429C35.4144 31.5758 35.3574 31.4484 35.5292 31.4059C35.5578 31.5051 35.5863 31.6042 35.4861 31.6892Z" fill="#E3E3E3"/>
<path d="M34.8122 24.9613C34.9556 24.9754 34.9841 25.0463 34.8986 25.1595C34.8407 25.1029 34.7976 25.0463 34.8122 24.9613Z" fill="#C9C9C9"/>
<path d="M13.103 32.1991C13.103 32.1425 13.1169 32.1 13.1169 32.0433C13.2171 32.0716 13.2749 32.1141 13.1601 32.1991H13.1315H13.103Z" fill="#696969"/>
<path d="M29.8365 38.4169C29.8651 38.3603 29.9221 38.3319 29.9799 38.3319C29.9653 38.4169 29.9082 38.431 29.8365 38.4169Z" fill="#E3E3E3"/>
<path d="M30.6108 37.9212C30.6255 37.8645 30.6686 37.8362 30.7403 37.8362C30.711 37.8929 30.6686 37.907 30.6108 37.9212Z" fill="#E3E3E3"/>
<path d="M17.562 37.6805C17.6198 37.6805 17.6622 37.7088 17.6769 37.7655C17.6337 37.7655 17.5766 37.7655 17.5334 37.7655C17.5481 37.7371 17.562 37.7089 17.562 37.6805Z" fill="#C9C9C9"/>
<path d="M29.9801 38.3462C30.0086 38.3179 30.0372 38.3037 30.0657 38.2754C30.0372 38.3037 30.0086 38.3179 29.9801 38.3462Z" fill="#E3E3E3"/>
<path d="M20.7026 6.91643C20.7596 6.90227 20.8167 6.88811 20.8745 6.87394C21.462 6.74647 22.007 6.49152 22.5952 6.4207C22.9537 6.37821 23.3261 6.33572 23.6846 6.29323C25.0761 6.22241 26.3951 6.46319 27.6857 6.95892C28.1012 7.15722 28.5175 7.35552 28.9331 7.55381C29.0194 7.5963 29.105 7.63879 29.1913 7.66712C29.65 8.03538 30.1087 8.40364 30.5535 8.78607C31.6144 9.72088 32.3175 10.8965 32.891 12.1429C32.6898 12.3837 32.4894 12.1429 32.2881 12.1429C31.959 11.4772 31.5858 10.8115 31.0986 10.245C30.9259 10.0183 30.8257 9.73505 30.5104 9.66423C30.5104 9.60758 30.4957 9.55092 30.4387 9.52259C30.424 9.33846 30.3099 9.29597 30.1519 9.31013C30.0802 9.26764 29.9939 9.21098 29.9222 9.16849C29.7364 8.89938 29.4635 8.72941 29.1913 8.57361C29.1767 8.43197 29.0911 8.36115 28.9762 8.29033C28.388 7.86542 27.7574 7.52549 27.0975 7.2422C26.1516 6.83145 25.1331 6.67565 24.1147 6.68981C23.0254 6.70397 21.95 6.95892 20.9601 7.42633C20.6594 7.56798 20.301 7.65296 20.129 7.99289C20.0997 7.99289 20.0858 7.99289 20.0573 7.99289C19.7844 8.06371 19.5555 8.20535 19.3974 8.43197C19.3257 8.4603 19.2687 8.50279 19.2394 8.57361C19.0536 8.58778 18.9672 8.72941 18.867 8.87105C18.7236 8.99852 18.5656 9.11184 18.4222 9.23931C18.2649 9.08351 18.2071 9.26764 18.1354 9.33846C17.8347 9.66423 17.5333 10.0042 17.2465 10.3583C17.0746 10.5849 16.831 10.769 16.7732 11.0665C16.6583 11.2648 16.5866 11.4914 16.4008 11.6613C16.1564 11.7746 15.9128 11.9021 15.7555 12.1287C15.6977 12.2279 15.6407 12.2563 15.569 12.1429C15.7979 11.5622 16.114 11.0381 16.4432 10.5141C17.1748 9.38095 18.1354 8.54528 19.1391 7.7521C19.4976 7.46882 19.9425 7.29886 20.358 7.0864C20.4158 7.0864 20.4728 7.0864 20.5014 7.02975C20.5731 6.98726 20.6309 6.94476 20.7026 6.91643Z" fill="#C9C9C9"/>
<path d="M15.5977 12.1147C15.6694 12.2138 15.7265 12.1855 15.7843 12.1005C15.9415 11.8597 16.1859 11.7464 16.4295 11.6331C16.1859 12.2421 15.8698 12.8229 15.6841 13.4603C15.6124 13.4744 15.526 13.4319 15.4975 13.5169C15.469 13.6019 15.5545 13.5877 15.6124 13.6019C15.6548 13.8427 15.4397 14.0268 15.4543 14.2676C15.2392 14.2251 15.0673 14.3809 14.8661 14.4092C15.0673 13.6302 15.2107 12.837 15.5977 12.1147Z" fill="#BCBCBC"/>
<path d="M14.8808 14.4092C15.0812 14.3809 15.2539 14.2251 15.469 14.2676C15.3256 15.0041 15.2107 15.7548 15.2393 16.5055C15.2539 16.8454 15.0242 16.9304 14.752 16.9729C14.7089 16.1089 14.752 15.259 14.8808 14.4092Z" fill="#B1B1B1"/>
<path d="M31.1127 10.2308C31.6007 10.8115 31.973 11.4631 32.303 12.1288C32.3315 12.1996 32.3462 12.2704 32.3747 12.3271C32.8195 13.2902 33.1202 14.2817 33.2065 15.344C33.2921 16.1088 33.2921 16.8737 33.2636 17.6385C33.2497 17.9927 33.3931 18.1059 33.7223 18.0634C33.7223 18.7292 33.7655 19.3949 33.6938 20.0605C33.4355 19.8764 33.1634 19.6923 32.9051 19.5081C32.8766 19.409 32.8334 19.324 32.8049 19.2249C32.8195 18.1768 32.848 17.1286 32.7902 16.0663C32.8334 15.4007 32.7332 14.7491 32.6044 14.0976C32.6044 14.0126 32.6183 13.9276 32.5466 13.871C32.5181 13.7293 32.4895 13.5877 32.461 13.4318C32.4749 13.2619 32.4178 13.1203 32.3315 12.9928C32.1025 12.1854 31.7441 11.4347 31.2846 10.7124C31.2846 10.5708 31.2422 10.4574 31.0841 10.4149C31.0125 10.3866 30.9978 10.3441 30.9978 10.2733C31.0125 10.2733 31.0556 10.2591 31.1127 10.2308Z" fill="#9C9C9C"/>
<path d="M33.1918 15.3582C33.1201 14.2959 32.8194 13.3044 32.3599 12.3413C32.3314 12.2705 32.3175 12.1997 32.2882 12.143C32.4894 12.1288 32.6899 12.3838 32.8911 12.143C33.3213 13.0212 33.4932 13.9701 33.6366 14.9191C33.5071 15.0749 33.5934 15.4573 33.1918 15.3582Z" fill="#BCBCBC"/>
<path d="M33.1918 15.3581C33.5934 15.4573 33.5071 15.0749 33.6505 14.9191C33.7515 15.4998 33.8085 16.0806 33.7515 16.6471C33.7083 17.1287 33.7222 17.5961 33.7083 18.0635C33.3783 18.106 33.2496 17.9927 33.2496 17.6386C33.2781 16.8879 33.2781 16.123 33.1918 15.3581Z" fill="#B1B1B1"/>
<path d="M16.802 11.0382C16.8598 10.7408 17.1034 10.5566 17.2753 10.33C17.5621 9.97592 17.8489 9.65015 18.1642 9.31021C18.222 9.2394 18.2937 9.05526 18.451 9.21107C18.451 9.2394 18.451 9.25356 18.451 9.28189C18.1642 9.46602 17.9638 9.73513 17.7772 10.0184C17.6053 10.1176 17.519 10.2734 17.4766 10.4575C17.3756 10.5 17.3332 10.5708 17.3332 10.6841C17.2322 10.7266 17.1898 10.7974 17.1898 10.8966C17.1181 10.9674 17.0464 11.0382 16.9747 11.1232C16.96 10.9674 16.8737 11.0099 16.802 11.0382Z" fill="#B1B1B1"/>
<path d="M15.6264 13.6019C15.5693 13.5877 15.483 13.6019 15.5115 13.5169C15.5408 13.4319 15.6263 13.4603 15.698 13.4603C15.6842 13.5169 15.6842 13.5736 15.6264 13.6019Z" fill="#B1B1B1"/>
<path d="M16.9454 17.1145C16.9454 17.2845 16.9454 17.4544 16.9454 17.6244C16.9601 17.9927 16.9886 18.3609 16.5869 18.5734C16.5584 18.5876 16.5731 18.6584 16.5584 18.7151C16.4297 18.7292 16.3148 18.7292 16.186 18.7433C16.2577 18.2334 16.3294 17.7094 16.415 17.1995C16.6016 17.1429 16.7596 17.0012 16.9454 17.1145Z" fill="#C9C9C9"/>
<path d="M35.9311 35.4284C35.7592 35.9242 35.4007 36.3066 35.1278 36.7457C35.0423 36.8873 34.9128 37.0006 34.8696 37.1706C34.6406 37.2697 34.5828 37.5105 34.4109 37.6663C34.2821 37.7938 34.1958 37.9638 33.9953 37.9921C33.6369 37.6096 33.2067 37.2981 32.8767 36.8873C32.9199 36.7598 32.9769 36.6465 33.0201 36.5191C33.3069 36.2641 33.5937 36.0374 33.6939 35.6409C33.8805 35.4426 34.0809 35.2585 34.1387 34.9752C34.296 34.9044 34.2675 34.6777 34.4109 34.5927C34.7555 34.6777 35.0847 34.7061 35.4008 34.961C35.6012 35.1169 35.7161 35.3293 35.9311 35.4284Z" fill="#D9D9D9"/>
<path d="M33.0344 36.519C32.9912 36.6465 32.9334 36.7597 32.891 36.8872C32.4747 37.3546 31.9158 37.3688 31.3561 37.3405C31.5712 37.043 31.8441 36.8164 32.1309 36.5898C32.4315 36.6181 32.7045 36.1791 33.0344 36.519Z" fill="#C9C9C9"/>
<path d="M15.9846 36.1508C16.0131 36.1791 16.0277 36.2074 16.0563 36.2358C16.0563 36.3208 16.0994 36.3632 16.1858 36.3774C16.3145 36.4766 16.4579 36.5757 16.515 36.7315C16.2575 36.8731 15.9707 36.774 15.6978 36.8165C15.4827 36.5898 15.182 36.4341 15.1104 36.0799C15.3971 35.995 15.6978 36.0375 15.9846 36.1508Z" fill="#BCBCBC"/>
<path d="M15.6841 36.8165C15.9562 36.7882 16.243 36.8731 16.5013 36.7315C16.8451 37.0431 17.2036 37.3547 17.5482 37.6663C17.5335 37.6663 17.5189 37.6805 17.5189 37.6663C17.1034 37.3405 16.6161 37.3405 16.1281 37.3122C15.9848 37.1847 15.8414 37.0715 15.6841 36.944C15.6841 36.9156 15.6841 36.8731 15.6841 36.8165Z" fill="#C9C9C9"/>
<path d="M59.2756 32.2841C59.2756 31.3634 59.2895 30.4286 59.2756 29.508C59.2756 29.253 59.3473 29.168 59.6048 29.1822C60.2647 29.1963 60.9385 29.168 61.6123 29.1963C62.8173 29.253 63.5342 30.202 63.2906 31.3776C63.2189 31.7458 63.0324 32.0291 62.7309 32.2557C62.6022 32.3549 62.5158 32.4257 62.7171 32.539C63.2189 32.8223 63.3477 33.2897 63.3762 33.8138C63.3909 34.2953 63.333 34.7911 63.5774 35.2443C63.6491 35.3859 63.5481 35.4143 63.434 35.4143C63.118 35.4143 62.8173 35.4284 62.502 35.4143C62.2291 35.4001 62.2005 35.1735 62.1859 34.9894C62.1435 34.6495 62.1435 34.3095 62.1435 33.9696C62.1288 33.0773 61.4982 32.6523 60.6232 32.9498C60.4513 33.0064 60.4945 33.1339 60.4945 33.2472C60.4945 33.8704 60.4798 34.4936 60.4945 35.1169C60.4945 35.3576 60.4228 35.4284 60.1784 35.4284C59.2756 35.4426 59.2756 35.4426 59.2756 34.5645C59.2756 33.7996 59.2756 33.0348 59.2756 32.2841ZM60.4945 31.0659C60.4945 32.0575 60.523 32.0857 61.4265 31.9583C61.4836 31.9441 61.5406 31.93 61.5984 31.9158C61.9423 31.8025 62.1003 31.5192 62.0857 31.0377C62.0718 30.5985 61.8852 30.2586 61.5699 30.1878C61.2253 30.117 60.8383 30.0604 60.5515 30.202C60.3364 30.3153 60.5083 30.6977 60.4652 30.9527C60.4798 30.981 60.4945 31.0234 60.4945 31.0659Z" fill="#696969"/>
<path d="M57.1534 31.5192C57.1534 30.8393 57.1673 30.1595 57.1534 29.4655C57.1534 29.2247 57.2251 29.1538 57.4687 29.1538C58.4008 29.1397 58.4008 29.1397 58.4008 30.0461C58.4008 31.1368 58.4008 32.2416 58.4008 33.3322C58.4008 34.1537 58.1425 34.8619 57.34 35.2301C56.5082 35.6126 55.6617 35.5843 54.873 35.0602C54.3426 34.7061 54.1137 34.1537 54.1137 33.5447C54.099 32.1707 54.1136 30.7827 54.099 29.4088C54.099 29.1963 54.1707 29.1397 54.3711 29.1255C55.3325 29.0831 55.3325 29.0831 55.3325 30.032C55.3325 31.0943 55.3325 32.1566 55.3325 33.2189C55.3325 33.403 55.3325 33.5872 55.3749 33.7571C55.4759 34.267 55.8051 34.5078 56.3362 34.4653C56.8235 34.437 57.1102 34.1537 57.1388 33.6297C57.1673 33.0631 57.1534 32.4824 57.1534 31.9158C57.1534 31.8025 57.1534 31.6608 57.1534 31.5192Z" fill="#696969"/>
<path d="M43.6883 30.9951C43.6027 30.9951 43.5163 30.9809 43.4308 30.9951C43.201 31.0234 43.0862 30.9526 43.043 30.6977C42.9574 30.216 42.6128 30.0036 42.1256 30.0603C41.7386 30.1028 41.4949 30.386 41.4803 30.7827C41.4656 31.0942 41.6383 31.2783 41.8819 31.4342C42.2404 31.675 42.6706 31.7882 43.0576 31.9724C43.7029 32.2699 44.2194 32.6948 44.2911 33.4454C44.4199 34.5786 43.8463 35.2868 42.6992 35.4567C41.4086 35.6408 40.2761 34.9326 40.118 33.8421C40.0749 33.5446 40.1466 33.4029 40.4765 33.4454C40.5482 33.4596 40.6199 33.4596 40.6916 33.4454C41.0933 33.3888 41.3515 33.4596 41.3939 33.9412C41.4371 34.3236 41.7956 34.5219 42.2543 34.5219C42.5989 34.5219 42.8857 34.4086 43.0145 34.0545C43.144 33.6721 43.0145 33.2754 42.7138 33.0347C42.5411 32.9072 42.3553 32.8223 42.1541 32.7514C41.8534 32.6239 41.5373 32.4965 41.2505 32.3406C40.4334 31.9016 40.1327 31.3208 40.2614 30.5135C40.3763 29.7629 40.9352 29.253 41.7956 29.083C42.8572 28.8847 43.8609 29.3662 44.1763 30.2444C44.4199 30.9384 44.3767 30.9951 43.6883 30.9951Z" fill="#696969"/>
<path d="M45.0798 32.2699C45.0798 31.3351 45.0798 30.3861 45.0798 29.4513C45.0798 29.2388 45.1368 29.1538 45.3665 29.1538C46.4127 29.168 47.4596 29.168 48.5212 29.1538C48.7363 29.1538 48.8219 29.2105 48.8219 29.4371C48.8365 30.1453 48.8504 30.1453 48.1334 30.1453C47.6177 30.1453 47.1011 30.1453 46.5707 30.1453C46.3842 30.1453 46.3125 30.202 46.3125 30.4003C46.3271 30.7402 46.3271 31.0802 46.3125 31.4201C46.2986 31.6326 46.3988 31.6892 46.5993 31.6892C47.1011 31.675 47.6177 31.7033 48.1195 31.675C48.3778 31.6608 48.4634 31.7458 48.4634 32.0008C48.4349 32.7515 48.5636 32.624 47.8181 32.6381C47.4165 32.6381 47.0294 32.6524 46.6278 32.6381C46.4127 32.6381 46.3125 32.6806 46.3125 32.9214C46.3271 33.318 46.3271 33.7288 46.3125 34.1253C46.2986 34.3662 46.4127 34.4087 46.6278 34.4087C47.2592 34.3945 47.8898 34.4087 48.5212 34.3945C48.7648 34.3945 48.8365 34.4653 48.8365 34.7061C48.808 35.5134 48.9221 35.3718 48.1481 35.386C47.2445 35.4001 46.341 35.3718 45.4382 35.4001C45.1653 35.4001 45.0798 35.3151 45.0798 35.046C45.0798 34.1253 45.0651 33.2047 45.0798 32.2699Z" fill="#696969"/>
<path d="M64.3084 32.284C64.3084 31.3633 64.3084 30.4285 64.3084 29.5079C64.3084 29.2671 64.3516 29.1538 64.6237 29.168C65.6421 29.1821 66.6459 29.1821 67.6643 29.168C67.965 29.168 68.0367 29.2671 68.0367 29.5504C68.0228 30.1594 68.0366 30.1594 67.406 30.1594C66.9041 30.1594 66.3876 30.1736 65.8858 30.1594C65.6421 30.1453 65.5273 30.216 65.5419 30.4852C65.5558 30.7968 65.5558 31.1226 65.5419 31.4342C65.5419 31.6325 65.6136 31.7175 65.8287 31.7175C66.3306 31.7032 66.8463 31.7316 67.3482 31.7032C67.6065 31.6891 67.6928 31.7741 67.6928 32.029C67.6643 32.7939 67.793 32.6523 67.0475 32.6664C66.6459 32.6806 66.2589 32.6806 65.8572 32.6664C65.599 32.6523 65.5419 32.7655 65.5419 32.9922C65.5558 33.3746 65.5558 33.7428 65.5419 34.1253C65.5273 34.3661 65.6136 34.4511 65.8572 34.4369C66.474 34.4227 67.0907 34.4369 67.7067 34.4227C67.9649 34.4227 68.0367 34.5077 68.0367 34.7626C68.0228 35.4142 68.0366 35.4142 67.3628 35.4142C66.4593 35.4142 65.5558 35.4 64.653 35.4142C64.3801 35.4142 64.2946 35.3434 64.2946 35.0601C64.3231 34.1395 64.3084 33.2047 64.3084 32.284Z" fill="#696969"/>
<path d="M50.5424 32.284C50.5424 32.7089 50.5285 33.1338 50.5424 33.5587C50.557 33.8987 50.6572 34.2102 50.9872 34.3944C51.5746 34.7343 52.1482 34.4227 52.206 33.7146C52.2199 33.4454 52.3062 33.3321 52.5784 33.3746C52.6933 33.3888 52.7935 33.3746 52.9083 33.3746C53.468 33.3746 53.468 33.3746 53.3963 33.927C53.2383 35.0318 52.3633 35.6267 51.1591 35.4708C50.0405 35.3292 49.352 34.6069 49.3096 33.4596C49.2804 32.6664 49.2665 31.8732 49.3096 31.0801C49.4384 29.1112 51.1738 28.7713 52.4065 29.2671C53.0232 29.522 53.4819 30.3294 53.4249 31.0092C53.4102 31.1651 53.3532 31.2217 53.1951 31.2217C53.0949 31.2217 52.9947 31.2217 52.8945 31.2217C52.3209 31.2217 52.3209 31.2217 52.1914 30.6834C52.1058 30.2869 51.9046 30.1028 51.5176 30.0744C51.0728 30.0461 50.8153 30.1877 50.6572 30.556C50.5709 30.7543 50.5424 30.9809 50.5285 31.1933C50.5285 31.5475 50.5285 31.9157 50.5424 32.284C50.5285 32.284 50.5424 32.284 50.5424 32.284Z" fill="#696969"/>
<path d="M35.9309 35.4284C35.7158 35.3293 35.5863 35.1169 35.4144 34.9752C35.1138 34.7344 34.7691 34.6919 34.4253 34.607C34.5255 34.3378 34.6404 34.0829 34.7406 33.8138C34.8555 33.5588 34.9704 33.318 35.0844 33.063C35.5146 33.488 36.1028 33.6297 36.6618 33.7996C36.533 34.3945 36.2177 34.9044 35.9309 35.4284Z" fill="#C9C9C9"/>
<path d="M36.6766 33.8138C36.1177 33.6438 35.5441 33.5021 35.0992 33.0772C35.1139 33.0064 35.1424 32.9356 35.1563 32.8647C35.3143 32.8222 35.2141 32.624 35.329 32.5673C35.8447 32.709 36.3752 32.8647 36.8917 33.0064C36.9349 33.3039 36.7768 33.5588 36.6766 33.8138Z" fill="#D9D9D9"/>
<path d="M68.4668 25.6128C67.6928 25.6128 67.4199 25.3579 67.4916 24.593C67.5348 24.1965 67.5494 23.7857 67.6928 23.4033C67.9364 22.7659 68.9402 22.4543 69.5138 22.8509C69.7288 23.0067 69.8291 23.2192 69.8291 23.4741C69.8152 23.9415 69.772 24.3947 69.6425 24.848C69.4706 25.3862 69.1121 25.6128 68.4668 25.6128Z" fill="#5FC503"/>
<path d="M45.1798 25.6128C44.3765 25.6128 44.1182 25.3438 44.2046 24.5648C44.2477 24.1965 44.2909 23.8282 44.3765 23.4883C44.5777 22.7659 45.6817 22.426 46.2691 22.8934C46.4704 23.0492 46.542 23.2758 46.5274 23.5166C46.5135 23.9699 46.4557 24.4231 46.3408 24.848C46.1975 25.3863 45.8104 25.6128 45.1798 25.6128Z" fill="#5FC503"/>
<path d="M57.2681 25.627C56.4502 25.627 56.178 25.3154 56.2929 24.5081C56.3361 24.1681 56.3785 23.8282 56.4648 23.5024C56.6514 22.7943 57.7268 22.4543 58.3289 22.8793C58.5294 23.0209 58.6011 23.2192 58.6011 23.4458C58.6011 23.9273 58.5587 24.3947 58.4291 24.848C58.2719 25.3863 57.8987 25.6129 57.2681 25.627Z" fill="#5FC503"/>
<path d="M28.001 20.1172C28.1444 20.188 28.3025 20.2588 28.4459 20.3438C28.9331 20.7121 29.4349 21.0803 29.9222 21.4345C29.9653 21.5336 30.0517 21.6044 30.1519 21.6469C30.1804 21.7177 30.2236 21.7602 30.2953 21.7886C30.7255 22.3126 31.2274 22.7942 31.5573 23.4032C31.5573 23.5024 31.6005 23.5448 31.7007 23.5448C31.7146 23.6016 31.7007 23.6723 31.7293 23.729C31.959 24.1539 32.1162 24.6071 32.2882 25.0604C32.3599 25.2587 32.3892 25.4287 32.1594 25.5278C31.8726 25.1454 31.6576 24.7063 31.3708 24.3097C30.6538 23.3041 29.7649 22.4968 28.7033 21.8877C27.7713 21.3495 26.7675 20.9671 25.6782 20.8112C24.3445 20.6129 23.0254 20.6838 21.7488 21.0662C20.0427 21.5761 18.6373 22.5534 17.5187 23.9273C16.9597 24.6071 16.4725 25.3437 16.2143 26.1935C15.9706 26.0661 15.9128 25.6269 16.0709 25.287C16.3715 24.6214 16.6729 23.9415 16.9597 23.2758C17.3329 22.8083 17.7052 22.3551 18.0784 21.8877C18.1786 21.8452 18.2503 21.7602 18.3073 21.6611C18.4222 21.5195 18.5517 21.4061 18.709 21.307C19.2109 20.9812 19.6842 20.6271 20.1576 20.273C20.2146 20.273 20.2724 20.2588 20.301 20.2022C20.4582 20.188 20.5877 20.1314 20.6733 20.0039C21.3332 19.7914 21.9785 19.579 22.6523 19.4374C23.7709 19.1966 24.861 19.2391 25.9789 19.4515C26.5671 19.5648 27.126 19.8198 27.7142 19.9331C27.7289 20.0747 27.8576 20.103 28.001 20.1172Z" fill="#8BE900"/>
<path d="M20.1429 20.273C19.6557 20.613 19.1823 20.9813 18.6951 21.3071C18.537 21.4062 18.4083 21.5337 18.2934 21.6611C18.1215 21.647 18.0498 21.7178 18.0637 21.8877C17.9488 21.8736 17.8633 21.9302 17.763 21.9869C17.1895 22.3835 16.7593 22.9217 16.343 23.4599C15.7124 24.2673 15.2243 25.1454 14.8805 26.1228C14.5367 27.1284 14.3216 28.1624 14.2067 29.2105C14.1636 29.5929 14.2784 29.9754 14.3216 30.3436C14.4357 31.3492 14.6084 32.3124 15.1103 33.233C15.6121 34.1395 16.013 35.0885 16.7731 35.8533C17.3035 36.3916 17.8486 36.9015 18.4507 37.3547C19.1106 37.8504 19.8422 38.1762 20.5877 38.5162C20.846 38.6294 21.0896 38.7428 21.3764 38.8136C22.0502 38.9552 22.7386 39.1252 23.4271 39.1536C24.1294 39.1818 24.8464 39.2668 25.5348 39.1252C26.3374 38.9411 27.1407 38.7853 27.9293 38.4878C28.8899 38.1054 29.6932 37.5105 30.4958 36.9156C30.5968 36.9156 30.6392 36.859 30.6392 36.774C30.6685 36.774 30.6823 36.774 30.7108 36.774C30.9259 36.7315 31.141 36.689 31.1557 36.4057C32.0877 35.5134 32.8479 34.5077 33.2634 33.2755C33.3498 33.0348 33.4214 32.7939 33.5648 32.5673C33.6936 32.369 33.8085 32.1141 33.8085 31.8875C33.8231 31.3634 34.0521 30.896 34.0806 30.3719C34.1523 29.1963 34.1238 28.0349 33.7514 26.9017C33.608 26.4343 33.4214 25.9953 33.2495 25.542C33.0198 24.9471 32.6898 24.4089 32.3599 23.8848C31.9875 23.3183 31.471 22.8509 31.0408 22.3126C30.8542 22.086 30.5967 21.8594 30.2521 21.817C30.1804 21.7886 30.1373 21.7461 30.1087 21.6753C30.1234 21.5053 30.0517 21.4345 29.8798 21.4628C29.3918 21.0946 28.8899 20.7263 28.4027 20.3722C28.5461 20.2305 28.6895 20.2873 28.8328 20.3864C29.4064 20.7688 30.0085 21.0662 30.5104 21.5478C30.7401 21.7745 31.1125 21.9019 31.3708 22.1569C31.9012 22.6809 32.346 23.2899 32.8047 23.8848C33.1061 24.2815 33.2202 24.7347 33.4353 25.1738C33.6651 25.6695 33.8231 26.1936 34.1238 26.661C34.2957 26.9301 34.2533 27.3125 34.3535 27.6383C34.5254 28.2332 34.554 28.8422 34.554 29.4371C34.5401 30.0178 34.5254 30.5985 34.3535 31.1793C34.224 31.6325 34.0806 32.0857 34.0521 32.5673C34.0382 32.9073 33.7799 33.148 33.6365 33.4455C33.1778 34.4653 32.6181 35.4426 31.8009 36.2358C31.0986 36.9156 30.3955 37.6239 29.5213 38.1054C28.8899 38.4595 28.2161 38.7428 27.5277 38.9977C26.352 39.4368 25.1478 39.5926 23.9143 39.5501C22.9105 39.5076 21.9068 39.3943 20.9316 39.0544C20.2292 38.7994 19.5693 38.4595 18.8955 38.1762C18.5085 38.0063 18.1639 37.7088 17.8486 37.4255C17.5479 37.1564 17.1748 36.944 16.9312 36.6465C16.6159 36.2641 16.2281 35.9383 16.013 35.4709C15.8843 35.2018 15.6121 35.0176 15.4256 34.7627C15.1673 34.4086 14.9807 34.0403 14.8659 33.6438C14.7371 33.1905 14.4357 32.8223 14.3216 32.369C14.0055 31.1368 13.7619 29.9186 13.9338 28.6298C14.0055 28.1199 14.1921 27.5958 14.1921 27.1142C14.2067 26.3069 14.6801 25.712 14.8952 25.018C15.0956 24.3947 15.6121 23.8566 16.0562 23.3183C16.3576 22.9642 16.6444 22.5959 16.9744 22.256C17.8054 21.4203 18.7668 20.7972 19.8561 20.3439C19.971 20.2873 20.0573 20.2873 20.1429 20.273Z" fill="#53BB01"/>
<path d="M34.755 33.8137C34.654 34.0828 34.5399 34.3378 34.4389 34.6069C34.2817 34.6919 34.3248 34.9044 34.1668 34.9893C34.038 34.961 33.8947 34.8902 33.7651 35.0035C33.6218 35.1026 33.5215 35.0318 33.4352 34.9185C33.6079 34.5077 33.8083 34.097 34.0951 33.7429C34.2955 33.7854 34.5399 33.7287 34.755 33.8137Z" fill="#888888"/>
<path d="M33.0344 36.519C32.7044 36.1649 32.4315 36.604 32.1309 36.5756C32.403 36.2357 32.6898 35.8958 32.9627 35.57C33.2063 35.655 33.4646 35.6408 33.7082 35.655C33.608 36.0374 33.3212 36.2782 33.0344 36.519Z" fill="#B1B1B1"/>
<path d="M33.7083 35.6551C33.4646 35.6409 33.2064 35.6693 32.9628 35.5701C33.063 35.3151 33.2349 35.1169 33.4215 34.9186C33.507 35.0319 33.608 35.1027 33.7514 35.0035C33.8802 34.9044 34.0236 34.9611 34.1523 34.9894C34.0953 35.2726 33.8948 35.4568 33.7083 35.6551Z" fill="#9C9C9C"/>
<path d="M20.6596 19.9898C20.5733 20.1172 20.4299 20.1739 20.2865 20.188C20.3443 20.0039 20.4014 19.8056 20.6596 19.9898Z" fill="#53BB01"/>
<path d="M28.001 20.1172C27.8723 20.0889 27.7428 20.0748 27.6996 19.9189C27.944 19.7631 27.944 19.9898 28.001 20.1172Z" fill="#53BB01"/>
<path d="M16.1858 36.3775C16.0994 36.3633 16.0563 36.3208 16.0563 36.2358C16.128 36.2641 16.1711 36.3066 16.1858 36.3775Z" fill="#9C9C9C"/>
<path d="M18.4369 9.28185C18.4369 9.25352 18.4369 9.23936 18.4369 9.21103C18.5803 9.08355 18.7376 8.97024 18.881 8.84276C19.0822 8.84276 19.211 8.75778 19.2541 8.54532C19.2826 8.47451 19.3258 8.41785 19.4122 8.40369C19.6843 8.33286 19.9564 8.26205 20.0713 7.96461C20.0998 7.96461 20.1145 7.96461 20.143 7.96461C20.5593 7.92212 20.8315 7.61051 21.2046 7.48303C22.5237 7.02979 23.8712 6.77484 25.2766 7.01562C26.2233 7.17143 27.1261 7.41222 27.9865 7.87963C28.3881 8.10624 28.7327 8.43202 29.1914 8.54532C29.4636 8.70113 29.7365 8.87109 29.9223 9.14021C29.9223 9.3385 30.0086 9.48014 30.2237 9.49431C30.2384 9.67844 30.3386 9.77759 30.5252 9.79175C30.5105 9.96172 30.5105 10.1175 30.7541 10.0892C30.7973 10.16 30.8544 10.2308 30.8975 10.3158C30.5822 10.5566 30.2384 10.6133 29.8506 10.5424C29.8082 10.5141 29.7504 10.4858 29.7072 10.4716C29.7218 10.3158 29.6502 10.2308 29.4782 10.2592C28.3743 9.25352 27.0691 8.6728 25.592 8.40369C24.2444 8.1629 22.9392 8.27621 21.6486 8.75778C20.8168 9.06939 20.0428 9.46598 19.3829 10.0609C19.3543 10.0892 19.2973 10.0892 19.2395 10.1034C19.1539 9.99004 19.0676 10.0325 18.982 10.0892C18.7376 10.2733 18.5086 10.2167 18.265 10.0892C18.0353 9.97588 17.9489 9.86256 18.2072 9.67844C18.3367 9.57929 18.4655 9.46598 18.4369 9.28185Z" fill="#FBFBFB"/>
<path d="M18.0641 17.6244C18.0356 17.6811 18.007 17.7236 17.9785 17.7802C17.9353 17.7944 17.8775 17.7944 17.8351 17.8227C17.2322 18.106 17.2322 18.106 17.2469 17.4261C17.2615 16.378 17.1752 15.3299 17.4049 14.3101C17.6771 13.1203 18.1643 12.0297 19.0108 11.1232C19.0678 11.1232 19.1395 11.1374 19.1681 11.2082C19.2112 11.279 19.2259 11.2507 19.2397 11.194C19.2544 11.1799 19.269 11.1515 19.2976 11.1374C19.4263 11.1515 19.498 11.0807 19.5558 10.9957C19.5844 10.9816 19.5982 10.9674 19.5982 10.9532C19.6414 10.8966 19.6992 10.8541 19.6699 10.7691C19.9143 10.8116 19.9999 10.6133 20.1433 10.4858C20.1718 10.4575 20.2011 10.4292 20.2296 10.4008C20.3013 10.3442 20.2728 10.2592 20.3013 10.1742C20.4301 10.33 20.5881 10.245 20.6883 10.1601C20.8749 10.0043 21.1185 9.93344 21.3336 9.83429C23.1114 9.05527 24.9038 9.02695 26.7255 9.69265C27.471 9.97593 28.1016 10.4292 28.7615 10.8541C28.8764 10.9674 28.962 11.109 29.1339 11.1374C29.1632 11.194 29.1339 11.2932 29.2203 11.3073C29.2349 11.3073 29.2634 11.2932 29.2773 11.279C29.292 11.194 29.2202 11.1515 29.1632 11.109C29.1339 11.0241 29.0915 10.9391 29.0622 10.8399C29.0768 10.8258 29.0915 10.8116 29.12 10.7833C30.3103 11.973 31.0127 13.3894 31.1414 15.0749C30.8261 15.0466 30.4537 14.9616 30.554 15.4999C30.554 15.514 30.4823 15.5565 30.4538 15.5848C30.4106 14.7633 30.1523 13.9984 29.8085 13.2619C29.5787 12.7662 29.1917 12.3696 28.9481 11.8881C29.0769 11.6898 29.0198 11.5198 28.8764 11.364C28.4031 10.8399 27.858 10.4433 27.2127 10.1317C26.4958 9.7918 25.7788 9.50852 24.9901 9.4377C23.2262 9.2819 21.635 9.73514 20.2011 10.7691C19.5982 11.2082 19.2112 11.8031 18.8674 12.4405C18.8242 12.5254 18.6091 12.7095 18.8959 12.8087C18.8527 12.922 18.8096 13.0353 18.7525 13.1486C18.3794 13.9559 18.0502 14.7633 18.0641 15.6698C18.0502 16.3072 18.0641 16.9729 18.0641 17.6244ZM19.0963 11.4065C19.111 11.4065 19.111 11.4065 19.1257 11.3923V11.3782C19.1257 11.3782 19.111 11.3923 19.0963 11.4065C19.0963 11.4206 19.0825 11.4348 19.0825 11.4348C19.0825 11.4206 19.0963 11.4065 19.0963 11.4065Z" fill="#888888"/>
<path d="M29.8503 10.5283C30.2381 10.5991 30.582 10.5566 30.8973 10.3016C30.9258 10.3016 30.9404 10.3016 30.969 10.3016C30.969 10.3583 30.9975 10.415 31.0553 10.4433C31.0838 10.5708 31.1124 10.6841 31.2558 10.7407C31.7006 11.4489 32.0729 12.1996 32.3027 13.0211C32.2163 13.2052 32.2456 13.3611 32.4314 13.4602C32.4607 13.6018 32.4892 13.7435 32.5178 13.8992C32.389 14.0126 32.4176 14.0834 32.5748 14.1259C32.7043 14.7774 32.8046 15.4289 32.7614 16.0947C32.5895 16.1088 32.5178 16.0238 32.4893 15.8681C32.389 15.4714 32.2595 15.089 32.1878 14.6925C32.1023 14.2392 31.8725 13.8143 31.6859 13.3893C31.2419 12.4263 30.7685 11.4914 29.9513 10.7691C29.8935 10.6841 29.8503 10.6133 29.8503 10.5283Z" fill="#F1F1F1"/>
<path d="M18.4368 9.28185C18.4653 9.46598 18.3504 9.57929 18.2217 9.67844C17.9634 9.86257 18.0636 9.97588 18.2787 10.0892C18.5223 10.2025 18.7521 10.2733 18.9957 10.0892C19.082 10.0184 19.1676 9.99004 19.254 10.1034C18.867 10.5566 18.4221 10.9532 18.0636 11.4489C17.5332 12.1854 17.046 12.9503 16.7299 13.8143C16.6582 14.0126 16.5727 14.225 16.4725 14.4234C16.4293 14.5083 16.3576 14.6075 16.2427 14.5508C16.1425 14.5083 16.1857 14.4234 16.1995 14.3242C16.3861 13.3186 16.6159 12.3271 17.0746 11.4064C17.1463 11.2506 17.2033 11.0948 17.1748 10.9107C17.3328 10.9107 17.3328 10.7974 17.3182 10.6982C17.4762 10.6982 17.4762 10.5849 17.4615 10.4716C17.6335 10.4858 17.6335 10.2875 17.763 10.2592C17.8486 10.3017 17.8632 10.4433 17.992 10.3725C18.0498 10.3441 18.0637 10.2733 18.0351 10.2167C17.992 10.075 17.8632 10.1317 17.763 10.1175C17.763 10.0892 17.763 10.0609 17.763 10.0325C17.9488 9.73509 18.15 9.46598 18.4368 9.28185Z" fill="#F1F1F1"/>
<path d="M19.6124 10.9249C19.5977 10.9391 19.5838 10.9533 19.5553 10.9674C19.3541 10.8116 19.3402 11.0099 19.297 11.1091C19.2824 11.1232 19.2685 11.1516 19.2392 11.1657C19.2107 11.1657 19.1822 11.1799 19.1675 11.1799C19.139 11.1091 19.0673 11.1091 19.0103 11.0949C19.3109 10.5992 19.7558 10.2592 20.2145 9.93347C21.5767 8.942 23.1108 8.48875 24.803 8.63039C26.3518 8.75787 27.6994 9.36691 28.8466 10.4009C28.9044 10.4434 28.9329 10.5142 28.9614 10.585C28.9183 10.6275 28.8759 10.67 28.8466 10.7125C28.7749 10.6558 28.7032 10.6133 28.6461 10.5567C27.4419 9.40941 25.9787 8.88534 24.3443 8.85701C22.8534 8.82868 21.505 9.28193 20.3293 10.1743C20.3008 10.2451 20.3293 10.3301 20.2576 10.4009C20.2006 10.4009 20.1289 10.4009 20.0711 10.4009C19.9277 10.5 19.7843 10.5992 19.6987 10.7691C19.6124 10.7833 19.6124 10.8541 19.6124 10.9249Z" fill="#9C9C9C"/>
<path d="M30.4674 15.5848C30.5105 15.5564 30.5822 15.5281 30.5676 15.4998C30.4674 14.9615 30.8405 15.0465 31.1558 15.0749C31.2275 16.0947 31.1705 17.1286 31.199 18.1484C31.1412 18.1343 31.0988 18.1343 31.041 18.1201C30.8837 17.9076 30.5676 17.936 30.4388 17.6951C30.4388 16.987 30.4535 16.2929 30.4674 15.5848Z" fill="#696969"/>
<path d="M16.9451 17.1144C16.7593 17.0011 16.6012 17.1428 16.4293 17.1853C16.4293 16.6612 16.6876 16.1796 16.7593 15.6697C16.7593 15.6272 16.8017 15.5423 16.8733 15.5564C16.9743 15.5706 17.0167 15.6414 17.0167 15.7406C17.0314 15.9672 16.9743 16.1938 16.9451 16.4204C16.9312 16.647 16.9451 16.8878 16.9451 17.1144Z" fill="#D9D9D9"/>
<path d="M32.1449 17.412C32.1164 17.412 32.0879 17.3979 32.0732 17.3979C31.973 17.0296 31.7579 17.1854 31.5428 17.2704C31.5428 16.8737 31.5428 16.463 31.5428 16.0664C31.5428 15.9814 31.4997 15.8539 31.6431 15.8257C31.7579 15.8114 31.7726 15.9389 31.7864 16.0098C31.9298 16.463 32.1025 16.9304 32.1449 17.412Z" fill="#D9D9D9"/>
<path d="M29.4781 10.2308C29.6354 10.2166 29.7217 10.2875 29.7071 10.4433C29.593 10.4008 29.5213 10.33 29.4781 10.2308Z" fill="#F1F1F1"/>
<path d="M28.8469 10.7124C28.8901 10.6699 28.9333 10.6274 28.9618 10.5849C29.0196 10.6558 29.0767 10.7124 29.1337 10.7832C29.1198 10.7974 29.1052 10.8116 29.0767 10.8399C29.005 10.8116 28.9333 10.7832 28.8762 10.7549C28.8762 10.7407 28.8616 10.7266 28.8469 10.7124Z" fill="#888888"/>
<path d="M30.4676 15.5848C30.4537 16.293 30.4391 16.9871 30.4391 17.6953C30.1954 17.6811 30.0089 17.5111 29.7791 17.4686C29.507 17.2986 29.2202 17.157 28.8902 17.1004C28.8332 17.0862 28.79 17.0579 28.733 17.0437C28.7037 16.9871 28.6466 16.9729 28.5896 16.9729C28.1016 16.8029 27.6282 16.633 27.1125 16.5905C27.0123 16.548 26.9113 16.5196 26.8111 16.5338C26.7679 16.4772 26.7255 16.463 26.6538 16.4913C26.5389 16.4488 26.4094 16.4347 26.2953 16.463C26.266 16.463 26.2521 16.4488 26.2236 16.4488C25.6354 16.3922 25.0472 16.2363 24.4451 16.3072C24.001 16.3213 23.5562 16.3355 23.1113 16.3355C23.0543 16.3072 22.9973 16.3072 22.9541 16.3638C22.8246 16.378 22.7105 16.378 22.5809 16.3922C22.2225 16.3922 21.8786 16.4488 21.534 16.5763C21.2048 16.548 20.9319 16.6896 20.6451 16.7887C20.4732 16.8171 20.3013 16.8454 20.1294 16.8737C19.5265 17.0012 18.9822 17.2986 18.4087 17.5253C18.2938 17.5678 18.1789 17.6103 18.0641 17.6103C18.0641 16.9587 18.0502 16.293 18.0502 15.6415C18.0502 14.735 18.3655 13.9277 18.7378 13.1203C18.7957 13.007 18.8388 12.8937 18.8812 12.7804C18.9676 12.6813 19.0539 12.5679 19.1256 12.4688C20.0577 11.109 21.305 10.2026 22.9679 9.90511C24.5746 9.62184 26.0941 9.86262 27.4995 10.6983C28.0445 11.0241 28.4886 11.4631 28.9481 11.8739C29.1917 12.3555 29.5787 12.752 29.8084 13.2478C30.1669 13.9985 30.4244 14.7633 30.4676 15.5848Z" fill="#FDFDFD"/>
<path d="M26.6534 16.5055C26.7105 16.4771 26.7675 16.4913 26.8107 16.548C26.7251 16.6329 26.682 16.5763 26.6534 16.5055Z" fill="#9C9C9C"/>
<path d="M26.2233 16.463C26.2518 16.463 26.2664 16.4774 26.295 16.4774C26.2518 16.5205 26.2371 16.5061 26.2233 16.463Z" fill="#9C9C9C"/>
<path d="M28.5894 16.987C28.6611 16.9729 28.7035 16.987 28.7328 17.0578C28.6317 17.157 28.6032 17.072 28.5894 16.987Z" fill="#B1B1B1"/>
<path d="M22.954 16.378C22.9972 16.3213 23.0542 16.3072 23.1112 16.3497C23.0688 16.4346 23.0257 16.4913 22.954 16.378Z" fill="#B1B1B1"/>
<path d="M35.3427 32.5672C35.2139 32.6239 35.3288 32.8222 35.1708 32.8647C35.1422 32.6806 35.1854 32.5247 35.3288 32.3973C35.3288 32.454 35.3288 32.5106 35.3427 32.5672Z" fill="#C9C9C9"/>
<path d="M29.1914 8.5454C28.7327 8.41793 28.3881 8.09216 27.9864 7.8797C27.1407 7.4123 26.2233 7.17151 25.2766 7.0157C23.8712 6.77492 22.5236 7.02987 21.2045 7.48311C20.8314 7.61059 20.5592 7.9222 20.1429 7.96469C20.3149 7.63892 20.6734 7.53977 20.9748 7.39813C21.9639 6.93072 23.0393 6.67577 24.1294 6.66161C25.1478 6.64745 26.1516 6.80324 27.1122 7.214C27.7713 7.49728 28.4166 7.83721 28.9902 8.26213C29.0765 8.33294 29.1767 8.40377 29.1914 8.5454Z" fill="#F1F1F1"/>
<path d="M30.9693 10.3017C30.9408 10.3017 30.9262 10.3017 30.8976 10.3017C30.8545 10.2308 30.7974 10.16 30.7542 10.075C30.7257 9.93341 30.6394 9.84842 30.5253 9.7776C30.5253 9.73511 30.5106 9.69262 30.5106 9.65012L30.5253 9.63596C30.8406 9.70679 30.9408 10.0042 31.1127 10.2167C31.0557 10.2592 31.0125 10.2733 30.9693 10.3017Z" fill="#B1B1B1"/>
<path d="M20.0576 7.96464C19.9428 8.26208 19.656 8.33289 19.3977 8.40372C19.5696 8.1771 19.7847 8.03546 20.0576 7.96464Z" fill="#F1F1F1"/>
<path d="M30.2236 9.4943C30.0085 9.46597 29.9221 9.3385 29.9221 9.14021C29.9938 9.1827 30.0802 9.23935 30.1519 9.28185C30.1804 9.35267 30.1951 9.42348 30.2236 9.4943Z" fill="#F1F1F1"/>
<path d="M19.2541 8.54535C19.2256 8.75781 19.0961 8.84279 18.881 8.84279C18.9673 8.70115 19.0675 8.57368 19.2541 8.54535Z" fill="#F1F1F1"/>
<path d="M30.2238 9.49432C30.1953 9.4235 30.1806 9.35268 30.1521 9.28187C30.3101 9.26771 30.4242 9.3102 30.4389 9.49432C30.4242 9.50849 30.4243 9.50849 30.4104 9.52265C30.3526 9.52265 30.2809 9.50849 30.2238 9.49432Z" fill="#B1B1B1"/>
<path d="M30.4388 9.49432C30.4958 9.52265 30.5105 9.5793 30.5105 9.63596L30.4958 9.65012C30.4673 9.60763 30.4388 9.56514 30.4103 9.52265C30.4242 9.52265 30.4388 9.50848 30.4388 9.49432Z" fill="#B1B1B1"/>
<path d="M32.4319 13.4602C32.2314 13.361 32.2168 13.2053 32.3031 13.0212C32.3895 13.1486 32.4465 13.2902 32.4319 13.4602Z" fill="#E3E3E3"/>
<path d="M31.2562 10.7407C31.1128 10.6982 31.0843 10.5708 31.0558 10.4433C31.2277 10.4716 31.2709 10.5849 31.2562 10.7407Z" fill="#B1B1B1"/>
<path d="M32.5897 14.1118C32.4316 14.0693 32.3892 13.9985 32.5326 13.8852C32.6043 13.956 32.5897 14.0268 32.5897 14.1118Z" fill="#E3E3E3"/>
<path d="M17.7632 10.0042C17.7632 10.0325 17.7632 10.0609 17.7632 10.0892C17.7632 10.1317 17.7632 10.1883 17.7632 10.2308C17.6337 10.2592 17.6337 10.4716 17.4618 10.4433C17.505 10.2592 17.5905 10.1034 17.7632 10.0042Z" fill="#E3E3E3"/>
<path d="M17.3185 10.6699C17.3185 10.7832 17.3332 10.8823 17.1752 10.8823C17.1752 10.7832 17.2183 10.7124 17.3185 10.6699Z" fill="#E3E3E3"/>
<path d="M17.4616 10.4433C17.4763 10.5566 17.4763 10.6557 17.3182 10.6699C17.3182 10.5708 17.3614 10.4858 17.4616 10.4433Z" fill="#E3E3E3"/>
<path d="M60.4943 31.0659C60.4943 31.0234 60.4943 30.9952 60.4943 30.9527C60.5228 30.6977 60.3648 30.3153 60.5799 30.202C60.8667 30.0461 61.2537 30.117 61.5983 30.1878C61.9136 30.2586 62.1002 30.5844 62.1141 31.0377C62.1287 31.5192 61.9706 31.8025 61.6268 31.9158C61.5698 31.93 61.5119 31.9583 61.4549 31.9583C60.5228 32.0857 60.4943 32.0432 60.4943 31.0659Z" fill="#F1F1F1"/>
<path d="M32.1447 25.542C32.389 25.4429 32.3598 25.2729 32.2742 25.0746C32.1023 24.6213 31.9442 24.1681 31.7145 23.7432C31.6859 23.7007 31.7006 23.6299 31.686 23.5591C31.8155 23.5591 31.8872 23.6299 31.9589 23.7291C32.3459 24.3239 32.6897 24.9187 33.005 25.5561C33.4784 26.5476 33.7366 27.5816 33.8368 28.6439C33.9664 30.1169 33.722 31.5758 33.1345 32.9497C32.7899 33.7712 32.3744 34.5502 31.8008 35.2301C31.2704 35.8675 30.6968 36.4623 30.0231 36.9439C29.4063 37.3972 28.7896 37.8504 28.0441 38.1054C27.5993 38.2611 27.1552 38.4311 26.6957 38.5444C26.18 38.6719 25.6496 38.8277 25.1184 38.8419C23.8278 38.8844 22.552 38.8844 21.3046 38.4311C20.5013 38.1479 19.7126 37.8362 19.0103 37.3688C17.8346 36.604 16.8162 35.655 16.0707 34.4369C15.7123 33.8562 15.3676 33.2471 15.1387 32.6097C14.9236 32.0149 14.8234 31.3633 14.6939 30.726C14.4649 29.5078 14.6222 28.3323 14.8373 27.1567C15.0092 26.2077 15.4393 25.3579 15.9127 24.5363C16.1856 24.0548 16.4724 23.5732 16.9596 23.2474C16.6582 23.9132 16.3714 24.593 16.0707 25.2587C15.9127 25.5986 15.9844 26.0377 16.2141 26.1652C15.9844 26.9017 15.7554 27.6241 15.7123 28.4031C15.612 30.032 15.8271 31.5899 16.5865 33.063C17.2896 34.3944 18.2648 35.4709 19.5261 36.2924C20.9893 37.2413 22.5951 37.7512 24.359 37.7371C24.6882 37.7371 25.0182 37.6805 25.3481 37.6521C26.0797 37.5813 26.7967 37.4113 27.4705 37.1281C28.4596 36.7173 29.3778 36.1933 30.1518 35.4425C30.7254 34.8901 31.2843 34.3094 31.6721 33.6295C32.2025 32.6806 32.6327 31.6891 32.8046 30.5844C33.005 29.3804 32.8909 28.2048 32.6327 27.0292C32.5031 26.5476 32.2164 26.0802 32.1447 25.542Z" fill="#65DF00"/>
<path d="M32.1452 25.542C32.2169 26.0803 32.5036 26.5477 32.6332 27.0717C32.9053 28.2474 33.0055 29.423 32.8051 30.6269C32.6332 31.7317 32.203 32.7231 31.6726 33.6722C31.2848 34.352 30.7259 34.9327 30.1523 35.4851C29.3636 36.2358 28.4601 36.7598 27.471 37.1706C26.7826 37.4539 26.0802 37.6239 25.3486 37.6946C25.0187 37.723 24.6887 37.7796 24.3595 37.7796C22.5956 37.7938 20.9898 37.2839 19.5266 36.3349C18.2653 35.5134 17.2901 34.437 16.587 33.1055C15.813 31.6326 15.6125 30.0604 15.7128 28.4457C15.7559 27.6808 15.9849 26.9443 16.2146 26.2078C16.4729 25.3579 16.9601 24.6214 17.519 23.9416C18.6377 22.5676 20.0284 21.5903 21.7491 21.0804C23.0397 20.698 24.3449 20.6272 25.6786 20.8255C26.7679 20.9813 27.7717 21.3778 28.7037 21.902C29.7653 22.511 30.6542 23.3325 31.3712 24.324C31.6433 24.7206 31.8584 25.1596 32.1452 25.542ZM24.4736 37.0573C24.718 37.0998 25.1189 37.0148 25.5067 36.944C27.5566 36.6041 29.2349 35.6126 30.5254 33.9837C30.8839 33.5305 31.2278 33.0631 31.4575 32.5532C32.0449 31.2359 32.3317 29.862 32.1452 28.4032C31.9879 27.1001 31.5292 25.9103 30.7976 24.8339C30.2672 24.069 29.6219 23.4174 28.8471 22.8793C26.7394 21.4346 24.4451 21.0663 22.0074 21.7603C20.5303 22.1852 19.2829 23.0067 18.2653 24.1682C17.5769 24.9471 17.0889 25.8395 16.7597 26.7743C16.3866 27.8508 16.2285 28.9839 16.4151 30.1453C16.5153 30.7685 16.6448 31.3776 16.8738 31.9725C17.1467 32.6806 17.6054 33.318 17.7203 34.0971C17.7341 34.2387 17.849 34.3803 18.007 34.3945C18.3794 34.437 18.6238 34.692 18.8674 34.9185C20.4015 36.3491 22.251 36.9581 24.4736 37.0573Z" fill="#5CD200"/>
<path d="M16.9453 23.2758C16.4581 23.6016 16.1713 24.0832 15.8992 24.5647C15.4397 25.3863 14.9956 26.2361 14.8237 27.1851C14.6086 28.3607 14.4506 29.5505 14.6803 30.7544C14.809 31.3917 14.9093 32.0433 15.1244 32.6381C15.3541 33.2755 15.6979 33.8704 16.0564 34.4653C16.8019 35.6834 17.8203 36.6182 18.996 37.3972C19.6991 37.8505 20.4877 38.1621 21.2903 38.4595C22.5376 38.9128 23.8143 38.9128 25.1048 38.8703C25.6352 38.8561 26.1518 38.7003 26.6822 38.5728C27.1555 38.4595 27.5857 38.2754 28.0298 38.1338C28.7752 37.8788 29.392 37.4256 30.0087 36.9723C30.6825 36.4766 31.2561 35.8817 31.7865 35.2585C32.3601 34.5786 32.7764 33.7854 33.1202 32.9781C33.6938 31.6042 33.9521 30.1595 33.8233 28.6723C33.7223 27.61 33.4787 26.576 32.9915 25.5845C32.69 24.9472 32.3316 24.3523 31.9446 23.7574C31.8875 23.6583 31.8012 23.5874 31.6724 23.5874C31.6724 23.4883 31.6292 23.4458 31.529 23.4458C31.1991 22.8368 30.6972 22.3694 30.267 21.8311C30.6108 21.8736 30.8691 22.0861 31.0557 22.3269C31.4858 22.8651 32.0016 23.3183 32.3747 23.8991C32.7047 24.4231 33.0346 24.9614 33.2636 25.5562C33.4355 26.0094 33.6221 26.4627 33.7655 26.916C34.1386 28.049 34.1525 29.2105 34.0955 30.3861C34.0669 30.9102 33.8372 31.3776 33.8233 31.9016C33.8087 32.1282 33.7084 32.3832 33.5789 32.5815C33.4355 32.8081 33.3638 33.0489 33.2783 33.2897C32.862 34.522 32.1026 35.5276 31.1705 36.4199C30.9123 36.4199 30.7828 36.5616 30.7257 36.7882C30.6972 36.7882 30.6825 36.7882 30.654 36.7882C30.5538 36.7882 30.5106 36.8448 30.5106 36.9298C29.7073 37.5247 28.9048 38.1196 27.9442 38.502C27.1555 38.8136 26.3522 38.9694 25.5489 39.1394C24.8612 39.2952 24.1443 39.1961 23.4412 39.1677C22.7389 39.1394 22.0651 38.9694 21.3905 38.8278C21.1184 38.7712 20.8601 38.6578 20.6018 38.5303C19.8563 38.1904 19.1108 37.8646 18.4656 37.3689C17.8635 36.9157 17.3184 36.4058 16.788 35.8675C16.0279 35.1027 15.6124 34.1678 15.1244 33.2472C14.6225 32.3266 14.4506 31.3634 14.3357 30.3578C14.2925 29.9754 14.1784 29.593 14.2208 29.2247C14.3357 28.1765 14.5508 27.1426 14.8954 26.1369C15.2246 25.1596 15.7264 24.2815 16.3578 23.4742C16.7734 22.9359 17.2036 22.3977 17.7771 22.0011C17.8773 21.9302 17.9637 21.8878 18.0786 21.902C17.6916 22.341 17.3184 22.8084 16.9453 23.2758Z" fill="#5CD200"/>
<path d="M18.0637 21.8735C18.0498 21.7036 18.1215 21.6327 18.2934 21.6469C18.2356 21.7602 18.1639 21.831 18.0637 21.8735Z" fill="#5CD200"/>
<path d="M29.9221 21.4345C30.0948 21.4203 30.1665 21.4911 30.1519 21.6469C30.037 21.6044 29.9653 21.5336 29.9221 21.4345Z" fill="#5CD200"/>
<path d="M31.5576 23.4174C31.6578 23.4174 31.701 23.4741 31.701 23.5591C31.6008 23.5591 31.5576 23.5166 31.5576 23.4174Z" fill="#65DF00"/>
<path d="M30.7401 36.7456C30.7972 36.519 30.9259 36.3773 31.1842 36.3773C31.1703 36.6606 30.9552 36.7031 30.7401 36.7456Z" fill="#5FC503"/>
<path d="M30.5106 36.8873C30.5106 36.7882 30.5677 36.7457 30.654 36.7457C30.6687 36.8448 30.6108 36.8873 30.5106 36.8873Z" fill="#5FC503"/>
<path d="M30.4105 9.52267C30.439 9.56516 30.4675 9.60765 30.496 9.65015C30.496 9.69264 30.5107 9.73513 30.5107 9.77762C30.3241 9.76346 30.2239 9.66431 30.2092 9.48018C30.2809 9.50851 30.3526 9.52267 30.4105 9.52267Z" fill="#F1F1F1"/>
<path d="M30.5255 9.79175C30.6396 9.86257 30.7259 9.94755 30.7544 10.0892C30.4962 10.1175 30.5108 9.94755 30.5255 9.79175Z" fill="#F1F1F1"/>
<path d="M28.948 11.888C28.4885 11.4631 28.0444 11.024 27.4994 10.7124C26.094 9.87674 24.5745 9.63596 22.9678 9.91923C21.3049 10.2167 20.0576 11.1232 19.1255 12.4829C19.0538 12.5962 18.9675 12.6954 18.8811 12.7945C18.5943 12.6954 18.8094 12.5113 18.8526 12.4263C19.1972 11.7889 19.5981 11.194 20.1863 10.7549C21.6056 9.72095 23.2122 9.2677 24.9753 9.4235C25.764 9.49432 26.481 9.7776 27.1979 10.1175C27.8432 10.4291 28.3883 10.8257 28.8616 11.3498C29.0197 11.5198 29.0767 11.6897 28.948 11.888Z" fill="#696969"/>
<path d="M28.8471 10.7125C28.8617 10.7266 28.8764 10.7408 28.8764 10.755C28.8471 10.7833 28.8186 10.8116 28.79 10.84C28.1301 10.415 27.4995 9.96179 26.754 9.67852C24.9331 9.01281 23.1407 9.04113 21.3621 9.82015C21.147 9.9193 20.9034 9.99012 20.7169 10.1459C20.6166 10.2309 20.4586 10.3159 20.3298 10.1601C21.5202 9.26776 22.8677 8.81452 24.3449 8.84285C25.9939 8.87117 27.4563 9.39524 28.6466 10.5425C28.7183 10.6133 28.79 10.6558 28.8471 10.7125Z" fill="#E3E3E3"/>
<path d="M28.7899 10.84C28.8184 10.8116 28.847 10.7833 28.8763 10.755C28.948 10.7833 29.0197 10.8116 29.0767 10.84C29.1052 10.9249 29.1484 11.0241 29.1769 11.1091L29.1484 11.1232C28.9904 11.0949 28.9048 10.9533 28.7899 10.84Z" fill="#C9C9C9"/>
<path d="M19.6991 10.7407C19.7847 10.5708 19.9281 10.4716 20.0715 10.3725C20.1 10.4008 20.1432 10.4291 20.1717 10.4716C20.0144 10.5849 19.9281 10.7832 19.6991 10.7407Z" fill="#D9D9D9"/>
<path d="M19.2974 11.109C19.3544 11.0099 19.3544 10.8116 19.5556 10.9674C19.4978 11.0524 19.4261 11.1374 19.2974 11.109Z" fill="#B1B1B1"/>
<path d="M29.1916 11.109C29.2486 11.1515 29.3203 11.1798 29.3065 11.2789C29.3065 11.2931 29.2633 11.3214 29.2486 11.3073C29.1484 11.2789 29.177 11.1939 29.1631 11.1373C29.1631 11.1231 29.1916 11.109 29.1916 11.109Z" fill="#C9C9C9"/>
<path d="M19.6126 10.9249C19.598 10.854 19.598 10.7832 19.6843 10.7407C19.7275 10.8257 19.6697 10.8824 19.6126 10.9249Z" fill="#D9D9D9"/>
<path d="M20.1576 10.4716C20.1291 10.4433 20.0859 10.415 20.0574 10.3725C20.1144 10.3725 20.1861 10.3725 20.2432 10.3725C20.2147 10.415 20.1861 10.4433 20.1576 10.4716Z" fill="#E3E3E3"/>
<path d="M19.0958 11.4069C19.1105 11.3925 19.1105 11.3781 19.1252 11.3781V11.3925C19.1105 11.3925 19.1105 11.3925 19.0958 11.4069Z" fill="#B1B1B1"/>
<path d="M19.1681 11.1798C19.1966 11.1798 19.2251 11.1656 19.239 11.1656C19.239 11.2365 19.2112 11.2648 19.1681 11.1798Z" fill="#B1B1B1"/>
<path d="M19.0959 11.4065C19.0959 11.4209 19.082 11.4209 19.082 11.4352C19.082 11.4209 19.0959 11.4209 19.0959 11.4065Z" fill="#B1B1B1"/>
<path d="M17.7631 10.2308C17.7631 10.1883 17.7631 10.1317 17.7631 10.0892C17.8633 10.1033 17.992 10.0467 18.0352 10.1883C18.0499 10.245 18.0499 10.3158 17.992 10.3441C17.8772 10.4149 17.8486 10.2733 17.7631 10.2308Z" fill="#FBFBFB"/>
<path d="M24.4736 37.0572C22.2371 36.9722 20.4015 36.349 18.8813 34.9326C18.6376 34.706 18.394 34.4511 18.0209 34.4086C17.849 34.3944 17.7488 34.2527 17.7341 34.1111C17.62 33.3321 17.1605 32.6948 16.8884 31.9865C16.6587 31.4058 16.5446 30.7826 16.4297 30.1594C16.2285 28.998 16.4012 27.8649 16.7735 26.7884C17.1035 25.8394 17.5907 24.9613 18.2792 24.1822C19.2976 23.0208 20.5449 22.1993 22.022 21.7744C24.4597 21.0803 26.754 21.4345 28.8618 22.8933C29.6504 23.4316 30.2957 24.0831 30.8122 24.8479C31.5431 25.9244 32.0018 27.1141 32.1598 28.4172C32.3464 29.8761 32.0449 31.25 31.4713 32.5673C31.2424 33.0772 30.8978 33.5446 30.5393 33.9978C29.2488 35.6267 27.5712 36.6181 25.5205 36.9581C25.1189 37.0147 24.718 37.0855 24.4736 37.0572ZM17.9924 33.927C18.1504 34.2811 18.394 34.4511 18.7957 34.4086C19.0393 34.3802 19.2829 34.4086 19.5265 34.4086C19.5412 34.5077 19.5982 34.5785 19.6846 34.6494C20.6166 35.4 21.6489 35.9099 22.8246 36.1366C24.2015 36.4198 25.5205 36.2782 26.8257 35.8249C27.5427 35.57 28.1448 35.1168 28.79 34.7626C29.1917 34.6919 29.5641 34.5219 29.8223 34.1961C29.9519 34.0261 30.1955 33.8278 29.9519 33.5729C29.9804 33.4313 30.0089 33.2896 30.0374 33.148C30.1376 33.148 30.224 33.1338 30.281 33.0347C30.4676 32.6805 30.7259 32.3548 30.8546 31.9724C31.2424 30.8959 31.4999 29.8053 31.3858 28.6438C31.2709 27.4399 30.9124 26.3068 30.2093 25.3154C29.2919 24.0122 28.0731 23.0633 26.5389 22.525C26.2375 22.1851 25.8937 22.0718 25.4635 22.2418C25.1767 22.2135 24.9038 22.171 24.617 22.1568C23.5415 22.1285 22.5239 22.3268 21.5055 22.7092C19.9999 23.2899 18.9106 24.3522 18.0502 25.6411C17.6771 26.2077 17.4473 26.8734 17.2754 27.5533C16.9316 27.6099 16.8599 27.8224 16.903 28.1339C17.1605 29.8761 17.4188 31.6325 17.6624 33.3746C17.7341 33.6154 17.8058 33.7995 17.9924 33.927Z" fill="#53BB01"/>
<path d="M25.4917 22.2559C25.9218 22.086 26.2803 22.1993 26.5671 22.5393C26.8254 23.1908 26.8254 23.8706 26.682 24.5505C26.5671 25.117 26.352 25.6411 26.194 26.1935C26.0652 26.6467 26.194 26.8309 26.6534 26.9159C26.8685 26.9584 27.0975 26.9442 27.3126 26.93C28.1159 26.9017 28.9184 26.8592 29.7217 26.8592C30.2236 26.8592 30.6684 27.0716 30.9259 27.5249C31.1703 27.964 31.141 28.3889 30.7826 28.7713C30.6823 28.8705 30.6823 28.9696 30.754 29.0971C31.1557 29.8761 31.1125 30.131 30.4534 30.7543C30.3524 30.8534 30.31 30.9242 30.3817 31.0659C30.697 31.7032 30.6253 32.0007 30.0371 32.4256C29.8366 32.5673 29.7788 32.6805 29.9222 32.893C29.98 32.9638 29.9939 33.063 30.0371 33.1622C30.0085 33.3038 29.98 33.4454 29.9515 33.5871C29.8081 33.757 29.6501 33.927 29.4496 34.0545C29.4203 34.0686 29.3918 34.097 29.3633 34.1111C28.8899 34.3236 28.388 34.3377 27.8723 34.3236C26.4807 34.2669 25.1185 34.1395 23.7709 33.7853C23.0825 33.6012 22.3802 33.4596 21.6632 33.4313C21.3764 33.4171 21.3186 33.3038 21.3186 33.0488C21.2901 31.5333 21.2762 30.0319 21.2184 28.5164C21.2045 28.1481 21.3047 27.9923 21.6771 27.879C22.4658 27.6524 23.1827 27.27 23.4988 26.4626C23.9714 25.2162 24.6883 24.0831 25.1185 22.8225C25.2049 22.5959 25.3483 22.4118 25.4917 22.2559Z" fill="#FBFCF9"/>
<path d="M25.492 22.256C25.3486 22.4118 25.2052 22.5959 25.1335 22.8084C24.7034 24.069 23.9864 25.202 23.513 26.4485C23.1977 27.2559 22.4807 27.6383 21.6921 27.8649C21.319 27.964 21.2187 28.134 21.2334 28.5023C21.2904 30.0178 21.319 31.5192 21.3336 33.0347C21.3336 33.2897 21.4053 33.4029 21.6775 33.4172C22.3944 33.4454 23.0975 33.5871 23.7859 33.7712C25.1335 34.1253 26.4958 34.2528 27.8865 34.3095C28.3884 34.3236 28.9049 34.3095 29.3783 34.097C29.3922 34.2245 29.2919 34.267 29.2056 34.352C29.0622 34.4794 28.8618 34.5644 28.7901 34.7769C28.1301 35.131 27.5427 35.5842 26.8257 35.8392C25.5205 36.3066 24.2015 36.4341 22.8246 36.1508C21.635 35.9099 20.602 35.4 19.6846 34.6635C19.6129 34.6069 19.5412 34.5361 19.5265 34.4227C19.6414 34.4227 19.7416 34.4227 19.8565 34.4086C20.2582 34.3945 20.4162 34.1395 20.2728 33.7571C20.2867 31.9016 20.2867 30.032 20.2867 28.1765C20.2867 27.6808 20.2011 27.6099 19.6992 27.6099C18.8959 27.5958 18.1073 27.5958 17.304 27.5958C17.4766 26.9301 17.7056 26.2502 18.0787 25.6837C18.9391 24.3947 20.0284 23.3324 21.5341 22.7517C22.5378 22.3551 23.5708 22.171 24.6463 22.1994C24.9331 22.1851 25.2199 22.2276 25.492 22.256Z" fill="#4AA502"/>
<path d="M17.3182 27.5675C18.1215 27.5675 18.9102 27.5816 19.7127 27.5816C20.2146 27.5816 20.3009 27.6524 20.3009 28.1482C20.3009 30.0036 20.2863 31.8733 20.2863 33.7287C20.2292 33.7712 20.1861 33.8279 20.129 33.8704C20.0858 33.8846 20.0573 33.9129 20.0141 33.9271C19.3403 33.9271 18.6658 33.9271 17.992 33.9129C17.8054 33.7854 17.7337 33.6013 17.7052 33.3888C17.4469 31.6467 17.2033 29.8904 16.945 28.1482C16.9026 27.8365 16.9743 27.6241 17.3182 27.5675Z" fill="#FBFCF9"/>
<path d="M30.0655 33.1623C30.0231 33.0773 30.0085 32.9781 29.9514 32.8931C29.808 32.6948 29.865 32.5674 30.0655 32.4257C30.6537 32.0008 30.7254 31.7033 30.4101 31.0659C30.3384 30.9243 30.3669 30.8535 30.4818 30.7544C31.1409 30.1311 31.1841 29.862 30.7825 29.0972C30.7108 28.9697 30.7108 28.8706 30.8118 28.7714C31.1556 28.389 31.1988 27.9641 30.9552 27.525C30.6969 27.0717 30.2667 26.8593 29.7502 26.8593C28.9476 26.8593 28.1443 26.916 27.341 26.9301C27.1259 26.9301 26.897 26.9443 26.6819 26.916C26.2232 26.8451 26.0937 26.6468 26.2232 26.1936C26.3805 25.6412 26.5955 25.1171 26.7104 24.5506C26.8391 23.8707 26.8392 23.1909 26.5955 22.5393C28.1297 23.0775 29.3485 24.0123 30.2667 25.3296C30.9552 26.3211 31.3136 27.44 31.4424 28.6581C31.5572 29.8195 31.299 30.9102 30.912 31.9866C30.7825 32.3549 30.525 32.6948 30.3384 33.0489C30.2521 33.148 30.1665 33.1623 30.0655 33.1623Z" fill="#4AA502"/>
<path d="M20.1293 33.8846C20.1864 33.8421 20.2295 33.7854 20.2866 33.7429C20.43 34.1253 20.2727 34.3802 19.8711 34.3945C19.7562 34.3945 19.656 34.3945 19.5411 34.4086C19.2975 34.4086 19.0539 34.3803 18.8095 34.4086C18.4086 34.4511 18.1504 34.2811 18.007 33.9271C18.6807 33.9271 19.3545 33.9271 20.0283 33.9412C20.0576 33.9271 20.0862 33.8987 20.1293 33.8846Z" fill="#44A903"/>
<path d="M28.8047 34.7627C28.8764 34.5503 29.0768 34.4795 29.2202 34.3378C29.3066 34.267 29.4068 34.2245 29.3921 34.0828C29.4207 34.0687 29.4499 34.0404 29.4785 34.0262C29.6789 33.8987 29.8223 33.7429 29.9803 33.5588C30.224 33.8279 29.9803 34.0262 29.8508 34.182C29.5933 34.522 29.2202 34.6919 28.8047 34.7627Z" fill="#44A903"/>
<path d="M29.4784 34.0403C29.4499 34.0545 29.4206 34.0829 29.3921 34.097C29.4206 34.0829 29.4499 34.0687 29.4784 34.0403Z" fill="#4AA502"/>
<path d="M20.129 33.8845C20.0859 33.8987 20.0573 33.927 20.0142 33.9412C20.0573 33.927 20.0859 33.8987 20.129 33.8845Z" fill="#53BB01"/>
</svg>
