<svg width="91" height="49" viewBox="0 0 91 49" fill="none" xmlns="http://www.w3.org/2000/svg">
<path d="M18.7995 39.4799C18.7995 39.4799 2.65923 33.9754 4.52516 11.6775C4.52516 11.6775 11.6157 9.625 18.7995 9.625C25.9834 9.625 32.8873 11.5842 33.0739 11.6775C34.9399 33.9754 18.7995 39.4799 18.7995 39.4799Z" fill="url(#paint0_linear_1660_653)"/>
<path d="M18.7995 39.4799C18.7995 39.4799 2.65923 33.9754 4.52516 11.6775C4.52516 11.6775 11.6157 9.625 18.7995 9.625C25.9834 9.625 32.8873 11.5842 33.0739 11.6775L31.5812 12.9837L18.7995 38.0805V39.4799Z" fill="url(#paint1_linear_1660_653)"/>
<path d="M18.7995 38.0805C18.7995 38.0805 4.24524 33.1357 5.92458 12.8904C5.92458 12.8904 12.362 11.0244 18.7995 11.0244C25.3303 11.0244 31.5812 12.7971 31.7677 12.8904C33.4471 33.1357 18.7995 38.0805 18.7995 38.0805Z" fill="white" stroke="#1A171B" stroke-width="0.450188" stroke-linecap="round"/>
<path d="M18.7995 38.0805C18.7995 38.0805 4.24524 33.1357 5.92458 12.8904C5.92458 12.8904 12.362 11.0244 18.7995 11.0244C25.3303 11.0244 31.5812 12.7971 31.7677 12.8904C33.4471 33.1357 18.7995 38.0805 18.7995 38.0805Z" fill="white"/>
<path d="M5.83134 12.7038H5.73805V12.8904C4.89838 23.4329 8.44365 29.7771 11.6157 33.229C15.0677 36.9609 18.7063 38.2671 18.7996 38.2671H18.8929H18.9862C18.9862 38.2671 22.718 36.9609 26.17 33.229C29.3421 29.7771 32.9807 23.4329 32.0477 12.8904V12.7971H31.9544C31.8611 12.7971 25.5169 10.9311 18.8929 10.9311C12.3621 10.8378 5.83134 12.6105 5.83134 12.7038ZM18.9862 11.1177C25.0504 11.1177 30.7415 12.7038 31.5812 12.9837C31.6745 14.0099 31.6745 15.2228 31.6745 16.1558C31.6745 24.6458 28.5024 30.057 25.7035 33.1357C22.5314 36.5877 19.2661 37.8939 18.7063 38.0805C18.2398 37.8939 14.7878 36.5877 11.709 33.1357C8.91013 30.057 5.83134 24.739 5.83134 16.2491C5.83134 15.3161 5.92464 14.1032 6.01794 13.077C7.0442 12.7971 13.1085 11.1177 18.9862 11.1177Z" fill="url(#paint2_linear_1660_653)"/>
<path d="M18.7995 35.5614C18.7995 35.5614 6.57765 31.0832 7.9771 14.1032C7.9771 14.1032 13.3883 14.5697 18.7995 14.5697C24.2107 14.5697 29.5286 14.1965 29.6219 14.1032C31.1147 31.0832 18.7995 35.5614 18.7995 35.5614Z" fill="url(#paint3_linear_1660_653)"/>
<path d="M18.7995 34.0687C18.7995 34.0687 8.25699 30.2435 9.46984 15.5027C9.46984 15.5027 14.1347 15.8759 18.7995 15.8759C23.4643 15.8759 28.0359 15.5027 28.2225 15.5027C29.4353 30.2435 18.7995 34.0687 18.7995 34.0687Z" fill="url(#paint4_radial_1660_653)"/>
<path d="M29.622 14.1032C29.4354 14.1032 24.2108 14.5697 18.7996 14.5697C13.3884 14.5697 7.97717 14.1032 7.97717 14.1032L9.46992 15.596C9.46992 15.596 14.1348 15.9692 18.7996 15.9692C23.4644 15.9692 28.0359 15.596 28.2225 15.596L29.622 14.1032Z" fill="#8B1820"/>
<path d="M18.7995 35.5614C18.7995 35.5614 6.57765 31.0832 7.9771 14.1032L9.46985 15.596C8.25699 30.2435 18.7995 34.162 18.7995 34.162V35.5614Z" fill="url(#paint5_linear_1660_653)"/>
<path d="M12.2688 28.191L13.9481 16.9021H16.9336L20.4789 28.191H17.4001L15.8141 22.3133L14.9744 28.191H12.2688Z" fill="white"/>
<path d="M20.9454 16.9021H23.7443L25.4236 28.191H22.718L21.6917 22.3133L20.7588 26.9782L19.1727 22.3133L20.9454 16.9021Z" fill="white"/>
<path d="M43.7098 22.3134H41.4707L39.3248 16.8089L38.5785 22.3134H36.0594L37.6455 12.144H40.0712L43.7098 22.3134ZM42.1237 17.0887L43.9897 12.144H46.4154L47.8148 22.3134H45.3891L44.736 16.8089L43.3366 20.0742L42.1237 17.0887Z" fill="#1A171B"/>
<path d="M57.1445 20.5407L56.4914 22.3134H54.0657L57.5176 12.144H60.0367L63.3953 22.3134H60.8763L60.3165 20.5407H57.1445ZM58.7305 15.3161L57.7042 18.5815H59.6635L58.7305 15.3161Z" fill="#1A171B"/>
<path d="M75.7104 19.3278H70.9523C70.9523 20.3541 71.4188 20.9139 72.3517 20.9139C72.8182 20.9139 73.1914 20.7273 73.4713 20.2608H75.6171C75.4305 21.1005 74.964 21.6603 74.4043 22.0334C73.8445 22.4066 73.0981 22.5932 72.3517 22.5932C70.2059 22.5932 68.6199 21.2871 68.6199 18.8614C68.6199 16.5289 70.1126 15.1295 72.1651 15.1295C74.4043 15.1295 75.7104 16.6222 75.7104 18.9547V19.3278ZM73.6579 17.8351C73.5646 17.182 73.0048 16.7155 72.3517 16.7155C71.6987 16.7155 71.1389 17.0887 71.0456 17.8351H73.6579Z" fill="#1A171B"/>
<path d="M83.5473 19.3278H78.7892C78.7892 20.3541 79.2557 20.9139 80.1887 20.9139C80.6551 20.9139 81.0283 20.7273 81.3082 20.2608H83.454C83.2674 21.1005 82.801 21.6603 82.2412 22.0334C81.6814 22.4066 80.935 22.5932 80.1887 22.5932C78.0428 22.5932 76.4568 21.2871 76.4568 18.8614C76.4568 16.5289 77.9495 15.1295 80.0021 15.1295C82.2412 15.1295 83.5473 16.6222 83.5473 18.9547V19.3278ZM81.4948 17.8351C81.4015 17.182 80.8417 16.7155 80.1887 16.7155C79.5356 16.7155 78.9758 17.0887 78.8825 17.8351H81.4948Z" fill="#1A171B"/>
<path d="M83.9205 14.0099C83.9205 13.077 84.6669 12.2373 85.6932 12.2373C86.6261 12.2373 87.4658 12.9837 87.4658 14.0099C87.4658 15.0362 86.7194 15.7826 85.6932 15.7826C84.6669 15.7826 83.9205 15.0362 83.9205 14.0099ZM84.2004 14.0099C84.2004 14.8496 84.8535 15.5027 85.6932 15.5027C86.5328 15.5027 87.1859 14.8496 87.1859 14.0099C87.1859 13.1703 86.5328 12.5172 85.6932 12.5172C84.8535 12.6105 84.2004 13.2636 84.2004 14.0099ZM86.4395 15.0362H86.1596L85.6932 14.1032H85.32V15.0362H85.0401V13.077H85.8798C86.2529 13.077 86.5328 13.1703 86.5328 13.6367C86.5328 14.0099 86.2529 14.1965 85.9731 14.1965L86.4395 15.0362ZM85.2267 13.3569V13.8233H85.5066C85.7865 13.8233 86.1596 13.8233 86.1596 13.6367C86.1596 13.3569 85.9731 13.3569 85.6932 13.3569H85.2267Z" fill="#1A171B"/>
<path d="M64.235 17.0887H62.9288V15.4094H64.3283V14.5697C64.3283 12.5172 65.2612 11.7708 67.0339 11.7708C67.5004 11.7708 67.8736 11.8641 68.1534 11.8641L68.0601 13.5434C67.8736 13.4502 67.687 13.4502 67.3138 13.4502C66.754 13.4502 66.4741 13.9166 66.4741 14.5697V15.4094H68.0601V17.0887H66.4741V22.3133H64.235V17.0887Z" fill="#1A171B"/>
<path d="M41.0974 27.1648C40.351 26.8849 39.9778 26.7916 39.2314 26.7916C38.3918 26.7916 37.4588 27.0715 37.4588 28.0977C37.4588 29.9637 41.7505 29.4972 41.7505 32.6693C41.7505 34.7218 40.1644 35.5615 38.1119 35.5615C37.4588 35.5615 36.7124 35.3749 36.0594 35.1883L36.246 33.8821C36.7124 34.0687 37.5521 34.3486 38.2985 34.3486C39.1381 34.3486 40.2577 33.8821 40.2577 32.7626C40.2577 30.6167 35.9661 31.1765 35.9661 28.191C35.9661 26.5117 37.3655 25.5787 39.1381 25.5787C39.7912 25.5787 40.5376 25.672 41.284 25.9519L41.0974 27.1648Z" fill="#1A171B"/>
<path d="M43.803 25.7653H49.3075V26.9782H45.2024V29.7771H48.9343V30.9899H45.2024V34.162H49.3075V35.3749H43.803V25.7653Z" fill="#1A171B"/>
<path d="M57.8908 27.3514C57.2377 26.9782 56.5847 26.7916 55.8383 26.7916C53.5992 26.7916 52.0131 28.3776 52.0131 30.5234C52.0131 32.7626 53.6925 34.2553 55.745 34.2553C56.4914 34.2553 57.4243 34.0687 57.8908 33.7888L57.9841 35.095C57.2377 35.3749 56.3048 35.4682 55.745 35.4682C52.5729 35.4682 50.5204 33.5089 50.5204 30.4301C50.5204 27.4447 52.7595 25.4854 55.745 25.4854C56.4914 25.4854 57.2377 25.5787 57.9841 25.8586L57.8908 27.3514Z" fill="#1A171B"/>
<path d="M66.8473 31.3631C66.8473 34.0687 65.4479 35.4682 63.0222 35.4682C60.5965 35.4682 59.197 34.0687 59.197 31.3631V25.7653H60.5965V31.1765C60.5965 33.0424 61.1563 34.2553 63.0222 34.2553C64.8881 34.2553 65.4479 32.9491 65.4479 31.1765V25.7653H66.8473V31.3631Z" fill="#1A171B"/>
<path d="M69.0864 25.7653H71.5121C73.4714 25.7653 75.3373 26.0452 75.3373 28.3776C75.3373 29.5905 74.4043 30.3368 73.2848 30.5234C73.7513 30.71 73.9379 30.8966 74.2177 31.4564L76.0837 35.2816H74.4976L73.0049 31.9229C72.5384 30.9899 72.0719 30.9899 71.3255 30.9899H70.4859V35.2816H69.0864V25.7653ZM70.4859 29.8704H71.6987C73.0049 29.8704 73.8446 29.3106 73.8446 28.3776C73.8446 27.5379 73.1915 26.9782 71.8853 26.9782H70.4859V29.8704Z" fill="#1A171B"/>
<path d="M77.7631 25.7653H83.2676V26.9782H79.1625V29.7771H82.8944V30.9899H79.1625V34.162H83.2676V35.3749H77.7631V25.7653Z" fill="#1A171B"/>
<path d="M53.4126 17.5552C53.0394 17.2753 52.573 17.182 52.0132 17.182C51.0802 17.182 50.3338 17.9284 50.3338 19.048C50.3338 20.1675 51.1735 20.8206 52.1998 20.8206C52.6663 20.8206 53.226 20.7273 53.5992 20.4474L53.6925 22.22C53.1327 22.4066 52.4797 22.4999 51.8266 22.4999C49.6808 22.4999 48.0947 21.1938 48.0947 18.8614C48.0947 16.5289 49.7741 15.2228 51.8266 15.2228C52.4797 15.2228 53.1327 15.3161 53.5992 15.596L53.4126 17.5552Z" fill="#1A171B"/>
<defs>
<linearGradient id="paint0_linear_1660_653" x1="10.3494" y1="33.2907" x2="25.7495" y2="4.62468" gradientUnits="userSpaceOnUse">
<stop stop-color="#636466"/>
<stop offset="0.0367559" stop-color="#68696B"/>
<stop offset="0.2712" stop-color="#838486"/>
<stop offset="0.509" stop-color="#97989A"/>
<stop offset="0.7502" stop-color="#A2A3A5"/>
<stop offset="1" stop-color="#A6A7A9"/>
</linearGradient>
<linearGradient id="paint1_linear_1660_653" x1="24.8199" y1="25.0722" x2="4.9296" y2="11.9124" gradientUnits="userSpaceOnUse">
<stop stop-color="#C5C6C8"/>
<stop offset="0.0948435" stop-color="#DCDDDE"/>
<stop offset="0.2048" stop-color="#F0F0F0"/>
<stop offset="0.3167" stop-color="#FBFBFB"/>
<stop offset="0.4326" stop-color="white"/>
<stop offset="0.5362" stop-color="#F6F7F7"/>
<stop offset="0.7022" stop-color="#DFDFE0"/>
<stop offset="0.9089" stop-color="#B9BABB"/>
<stop offset="1" stop-color="#A6A7A9"/>
</linearGradient>
<linearGradient id="paint2_linear_1660_653" x1="29.8461" y1="28.797" x2="8.86852" y2="14.6062" gradientUnits="userSpaceOnUse">
<stop stop-color="#4B4B4D"/>
<stop offset="0.2321" stop-color="#646466"/>
<stop offset="0.482" stop-color="#77787A"/>
<stop offset="0.7365" stop-color="#828385"/>
<stop offset="1" stop-color="#868789"/>
</linearGradient>
<linearGradient id="paint3_linear_1660_653" x1="9.49933" y1="27.8229" x2="27.4374" y2="15.0182" gradientUnits="userSpaceOnUse">
<stop stop-color="#8B1820"/>
<stop offset="0.6067" stop-color="#CC1332"/>
<stop offset="0.7079" stop-color="#CA0233"/>
<stop offset="1" stop-color="#8B1E40"/>
</linearGradient>
<radialGradient id="paint4_radial_1660_653" cx="0" cy="0" r="1" gradientUnits="userSpaceOnUse" gradientTransform="translate(15.8803 18.5469) scale(19.0666)">
<stop stop-color="#CC1332"/>
<stop offset="0.4607" stop-color="#CA0233"/>
<stop offset="1" stop-color="#8B1E40"/>
</radialGradient>
<linearGradient id="paint5_linear_1660_653" x1="4.31483" y1="15.5094" x2="20.1762" y2="33.8041" gradientUnits="userSpaceOnUse">
<stop stop-color="#8B1820"/>
<stop offset="0.6067" stop-color="#CC1332"/>
<stop offset="0.7079" stop-color="#CA0233"/>
<stop offset="1" stop-color="#8B1E40"/>
</linearGradient>
</defs>
</svg>
