<svg width="88" height="49" viewBox="0 0 88 49" fill="none" xmlns="http://www.w3.org/2000/svg">
<path d="M18.725 11.9875C11.725 11.9875 6.125 17.5875 6.125 24.5C6.125 31.4125 11.725 37.1 18.725 37.1H71.05C77.9625 37.1 83.65 31.5 83.65 24.5C83.65 17.5875 78.05 11.9 71.05 11.9H18.725V11.9875Z" fill="white"/>
<path d="M71.0498 38.15H18.7248C11.1998 38.15 5.07483 32.025 5.07483 24.5C5.07483 16.975 11.1998 10.85 18.7248 10.85H71.0498C78.5748 10.85 84.6998 16.975 84.6998 24.5C84.6998 32.025 78.5748 38.15 71.0498 38.15ZM18.7248 11.9875C11.7248 11.9875 6.12483 17.5875 6.12483 24.5C6.12483 31.4125 11.7248 37.1 18.7248 37.1H71.0498C77.9623 37.1 83.6498 31.5 83.6498 24.5C83.6498 17.5875 78.0498 11.9 71.0498 11.9H18.7248V11.9875Z" fill="#CFCFCF"/>
<path d="M64.7498 16.8875C62.7373 16.8875 61.0748 18.55 61.0748 20.5625C61.0748 22.575 62.7373 24.2375 64.7498 24.2375C66.7623 24.2375 68.4248 22.575 68.4248 20.5625C68.4248 18.55 66.7623 16.8875 64.7498 16.8875ZM64.7498 22.4875C63.6998 22.4875 62.8248 21.6125 62.8248 20.5625C62.8248 19.5125 63.6998 18.6375 64.7498 18.6375C65.7998 18.6375 66.6748 19.5125 66.6748 20.5625C66.6748 21.6125 65.7998 22.4875 64.7498 22.4875Z" fill="#1D1D1B"/>
<path d="M47.8625 16.8875C45.85 16.8875 44.1875 18.55 44.1875 20.5625C44.1875 22.575 45.85 24.2375 47.8625 24.2375C49.875 24.2375 51.5375 22.575 51.5375 20.5625C51.5375 18.55 49.875 16.8875 47.8625 16.8875ZM47.8625 22.4875C46.8125 22.4875 45.9375 21.6125 45.9375 20.5625C45.9375 19.5125 46.8125 18.6375 47.8625 18.6375C48.9125 18.6375 49.7875 19.5125 49.7875 20.5625C49.7875 21.6125 48.9125 22.4875 47.8625 22.4875Z" fill="#1D1D1B"/>
<path d="M60.8125 22.575C60.55 22.6625 60.2 22.75 60.1125 22.75C59.5 22.75 59.325 22.575 59.325 21.9625V18.55H60.8125V17.15H59.325V15.1375H57.6625L57.3125 17.15H56.175H56C55.0375 17.15 54.3375 17.7625 53.8125 18.6375L53.2 17.15H51.975V24.2375H54.075V21.175C54.075 19.6 54.95 18.6375 56.0875 18.6375H57.225V22.1375C57.225 23.8 58.1 24.4125 59.4125 24.4125C60.1125 24.4125 60.6375 24.2375 60.9875 24.15L60.8125 22.575Z" fill="#1D1D1B"/>
<path d="M70.9623 19.25V24.0625H68.9498V17.0625H70.1748L70.5248 18.1125" fill="#1D1D1B"/>
<path d="M70.5251 18.1125C71.1376 17.4125 72.0126 16.8875 72.9751 16.8875C74.6376 16.8875 75.3376 18.2 75.3376 19.5125V24.15H73.2376V19.6C73.2376 18.9875 72.7126 18.6375 72.1876 18.6375C71.5751 18.6375 71.2251 18.9875 70.8751 19.3375" fill="#1D1D1B"/>
<path d="M36.1373 14.525H38.4123L41.5623 20.5625V14.525H43.4873V24.15H41.3873L37.9748 17.5V24.15H36.1373V14.525Z" fill="#1D1D1B"/>
<path d="M81.4625 10.85V11.2H81.025V12.95H80.5875V11.2H80.0625V10.85H81.4625Z" fill="#B1B1B1"/>
<path d="M81.725 12.95V10.85H82.3375L82.6875 12.25L83.0375 10.85H83.5625V12.95H83.2125V11.2875L82.775 12.95H82.5125L82.075 11.2875V12.95H81.725Z" fill="#B1B1B1"/>
<path d="M35.5251 32.6375L35.9626 31.85C36.3126 32.1125 36.9251 32.375 37.6251 32.375C38.3251 32.375 38.7626 32.025 38.7626 31.5C38.7626 30.8875 38.2376 30.7125 37.3626 30.3625C36.5751 30.1 35.7876 29.6625 35.7876 28.525C35.7876 27.475 36.6626 26.8625 37.7126 26.8625C38.5001 26.8625 39.0251 27.0375 39.4626 27.3L39.1126 28.0875C38.7626 27.9125 38.3251 27.7375 37.8001 27.7375C37.1876 27.7375 36.8376 28 36.8376 28.4375C36.8376 29.05 37.2751 29.1375 38.0626 29.4C38.9376 29.6625 39.8126 30.1 39.8126 31.325C39.8126 32.375 39.0251 33.075 37.7126 33.075C36.6626 33.3375 35.9626 32.9875 35.5251 32.6375Z" fill="#B1B1B1"/>
<path d="M41.6501 27.125H45.2376V28H42.7001V29.6625H44.7126V30.45H42.7001V32.375H45.4126V33.25H41.6501V27.125Z" fill="#B1B1B1"/>
<path d="M46.9001 30.1875C46.9001 28.4375 47.7751 27.0375 49.4376 27.0375C50.2251 27.0375 50.8376 27.3 51.1876 27.7375L50.5751 28.4375C50.2251 28.0875 49.8751 27.9125 49.4376 27.9125C48.4751 27.9125 47.9501 28.7 47.9501 30.275C47.9501 31.675 48.4751 32.375 49.4376 32.375C49.9626 32.375 50.4001 32.1125 50.6626 31.7625L51.2751 32.4625C50.8376 32.9875 50.3126 33.3375 49.3501 33.3375C47.7751 33.3375 46.9001 31.9375 46.9001 30.1875Z" fill="#B1B1B1"/>
<path d="M53.0251 30.8875V27.125H54.0751V31.0625C54.0751 31.9375 54.2501 32.4625 55.2126 32.4625C56.0876 32.4625 56.3501 31.9375 56.3501 31.0625V27.125H57.4001V30.8875C57.4001 32.375 56.7876 33.3375 55.2126 33.3375C53.6376 33.3375 53.0251 32.375 53.0251 30.8875Z" fill="#B1B1B1"/>
<path d="M63.7 33.25H62.5625L61.425 30.625H60.4625V33.25H59.4125V27.125H61.425C62.65 27.125 63.6125 27.5625 63.6125 28.875C63.6125 29.75 63.0875 30.275 62.475 30.45L63.7 33.25ZM61.3375 29.8375C62.125 29.8375 62.475 29.575 62.475 28.875C62.475 28.175 62.0375 27.9125 61.3375 27.9125H60.375V29.75H61.3375V29.8375Z" fill="#B1B1B1"/>
<path d="M65.4498 27.125H69.1248V28H66.4998V29.6625H68.5998V30.45H66.4998V32.375H69.2998V33.25H65.4498V27.125Z" fill="#B1B1B1"/>
<path d="M71.0502 27.125H72.5377C74.5502 27.125 75.5127 28.175 75.5127 30.1875C75.5127 32.2 74.5502 33.25 72.6252 33.25H71.0502V27.125V27.125ZM72.5377 32.375C73.9377 32.375 74.4627 31.675 74.4627 30.1C74.4627 28.7 74.1127 27.9125 72.7127 27.9125H72.1877V32.375H72.5377Z" fill="#B1B1B1"/>
<path d="M18.6375 39.2C10.5 39.2 3.9375 32.6375 3.9375 24.5C3.9375 16.3625 10.5 9.8 18.6375 9.8C26.775 9.8 33.3375 16.3625 33.3375 24.5C33.3375 32.6375 26.775 39.2 18.6375 39.2ZM18.6375 14.4375C15.925 14.4375 13.3875 15.4875 11.55 17.4125C9.625 19.3375 8.575 21.875 8.575 24.5C8.575 27.2125 9.625 29.75 11.55 31.5875C13.475 33.5125 16.0125 34.5625 18.6375 34.5625C21.35 34.5625 23.8875 33.5125 25.725 31.5875C27.65 29.6625 28.7 27.125 28.7 24.5C28.7 21.7875 27.65 19.25 25.725 17.4125C23.8 15.4875 21.35 14.4375 18.6375 14.4375Z" fill="#FCC200"/>
<path d="M35.7876 7.525H34.6501V8.6625H35.7876V7.525Z" fill="#FCC200"/>
<path d="M35.7876 5.25H34.6501V6.3875H35.7876V5.25Z" fill="#FCC200"/>
<path d="M32.4625 8.66249H31.4125V9.8H32.4625V8.66249Z" fill="#FCC200"/>
<path d="M30.3625 10.85H29.3125V11.9H30.3625V10.85Z" fill="#1D1D1B"/>
<path d="M33.6876 9.8H32.4626V10.85H33.6876V9.8Z" fill="#1D1D1B"/>
<path d="M29.3123 9.8875H28.2623V10.9375H29.3123V9.8875Z" fill="#1D1D1B"/>
<path d="M32.4625 10.85H31.4125V11.9H32.4625V10.85Z" fill="#1D1D1B"/>
<path d="M34.6498 6.3875H33.5123V7.525H34.6498V6.3875Z" fill="#1D1D1B"/>
<path d="M33.5125 7.525H31.4125V8.6625H33.5125V7.525Z" fill="#1D1D1B"/>
<path d="M31.4127 8.66249H30.3627V10.85H31.4127V8.66249Z" fill="#1D1D1B"/>
<path d="M30.3623 11.9875V13.0375H29.3123V11.9875H27.5623V12.775H26.5998V13.7375H27.6498V14.7875H26.5998V13.7375H25.3748V15.4H24.3248V16.45H23.6248V17.5H22.8373C21.9623 18.8125 19.7748 22.925 19.0748 24.5875C16.6248 21.2625 14.7873 19.8625 13.2998 19.425C12.5123 19.1625 11.5498 20.0375 12.8623 21.4375C15.9248 24.7625 16.8873 27.5625 17.7623 29.75C18.2873 30.8875 20.4748 31.0625 20.9123 29.925C21.8748 27.3875 23.1873 24.5875 24.7623 22.3125V21.0875H25.6373V20.0375H26.5123V18.8125H27.5623V17.5875H26.5123V16.45H27.5623V17.5875H28.6123V16.5375H29.4873V15.225H30.4498V14.35H31.4123V11.9875H30.3623Z" fill="#1D1D1B"/>
<path d="M9.625 44.275H10.4125V44.8875C10.675 44.5375 11.025 44.1875 11.6375 44.1875C12.5125 44.1875 13.3 44.8875 13.3 46.025C13.3 47.1625 12.5125 47.8625 11.6375 47.8625C11.025 47.8625 10.675 47.6 10.4125 47.25V48.825H9.625V44.275ZM12.425 46.025C12.425 45.325 11.9875 44.8875 11.4625 44.8875C10.9375 44.8875 10.4125 45.325 10.4125 46.025C10.4125 46.725 10.85 47.1625 11.4625 47.1625C11.9875 47.1625 12.425 46.725 12.425 46.025Z" fill="#B1B1B1"/>
<path d="M13.9125 46.025C13.9125 44.975 14.7 44.1875 15.75 44.1875C16.8 44.1875 17.5875 44.975 17.5875 46.025C17.5875 46.9875 16.8 47.8625 15.6625 47.8625C14.7 47.8625 13.9125 46.9875 13.9125 46.025ZM16.8875 46.025C16.8875 45.4125 16.45 44.8875 15.8375 44.8875C15.225 44.8875 14.7875 45.4125 14.7875 46.025C14.7875 46.6375 15.225 47.1625 15.8375 47.1625C16.45 47.1625 16.8875 46.6375 16.8875 46.025Z" fill="#B1B1B1"/>
<path d="M18.0251 44.275H18.9001L19.6001 46.6375L20.3876 44.275H21.0876L21.8751 46.6375L22.5751 44.275H23.3626L22.2251 47.775H21.5251L20.7376 45.4125L19.9501 47.775H19.1626L18.0251 44.275Z" fill="#B1B1B1"/>
<path d="M23.8002 46.025C23.8002 44.975 24.5002 44.1875 25.5502 44.1875C26.6877 44.1875 27.2127 45.0625 27.2127 46.1125C27.2127 46.2 27.2127 46.2875 27.2127 46.375H24.5877C24.6752 46.9875 25.1127 47.25 25.6377 47.25C25.9877 47.25 26.3377 47.075 26.6002 46.8125L27.0377 47.25C26.6877 47.6 26.2502 47.8625 25.5502 47.8625C24.5877 47.8625 23.8002 47.075 23.8002 46.025ZM26.3377 45.7625C26.2502 45.2375 25.9877 44.8 25.4627 44.8C24.9377 44.8 24.5877 45.15 24.5877 45.7625H26.3377Z" fill="#B1B1B1"/>
<path d="M28 44.275H28.7875V45.0625C29.05 44.5375 29.4 44.1875 30.0125 44.1875V45.0625H29.925C29.225 45.0625 28.7 45.5 28.7 46.4625V47.775H28V44.275Z" fill="#B1B1B1"/>
<path d="M30.5375 46.025C30.5375 44.975 31.2375 44.1875 32.2875 44.1875C33.425 44.1875 33.95 45.0625 33.95 46.1125C33.95 46.2 33.95 46.2875 33.95 46.375H31.325C31.4125 46.9875 31.85 47.25 32.375 47.25C32.725 47.25 33.075 47.075 33.3375 46.8125L33.775 47.25C33.425 47.6875 32.9875 47.95 32.375 47.95C31.325 47.8625 30.5375 47.075 30.5375 46.025ZM33.1625 45.7625C33.075 45.2375 32.8125 44.8 32.2875 44.8C31.7625 44.8 31.4125 45.15 31.4125 45.7625H33.1625Z" fill="#B1B1B1"/>
<path d="M34.5625 46.025C34.5625 44.8875 35.35 44.1875 36.225 44.1875C36.8375 44.1875 37.1875 44.45 37.45 44.8V42.875H38.2375V47.775H37.45V47.1625C37.1875 47.5125 36.75 47.8625 36.225 47.8625C35.35 47.8625 34.5625 47.1625 34.5625 46.025ZM37.45 46.025C37.45 45.325 37.0125 44.8875 36.4 44.8875C35.875 44.8875 35.35 45.325 35.35 46.025C35.35 46.725 35.7875 47.1625 36.4 47.1625C36.925 47.1625 37.45 46.725 37.45 46.025Z" fill="#B1B1B1"/>
<path d="M42.0001 47.25V47.775H41.2126V42.875H42.0001V44.8C42.2626 44.45 42.6126 44.1 43.2251 44.1C44.1001 44.1 44.8876 44.8 44.8876 45.9375C44.8876 47.075 44.1001 47.775 43.2251 47.775C42.6126 47.8625 42.2626 47.5125 42.0001 47.25ZM44.0126 46.025C44.0126 45.325 43.5751 44.8875 43.0501 44.8875C42.5251 44.8875 42.0001 45.325 42.0001 46.025C42.0001 46.725 42.4376 47.1625 43.0501 47.1625C43.5751 47.1625 44.0126 46.725 44.0126 46.025Z" fill="#B1B1B1"/>
<path d="M45.4126 48.65L45.6751 48.0375C45.8501 48.125 45.9376 48.2125 46.1126 48.2125C46.3751 48.2125 46.4626 48.125 46.6376 47.775L45.1501 44.275H46.0251L46.9876 46.9L47.8626 44.275H48.7376L47.3376 47.8625C47.0751 48.5625 46.7251 48.825 46.2001 48.825C45.8501 48.825 45.6751 48.7375 45.4126 48.65Z" fill="#B1B1B1"/>
<path d="M51.1875 43.1375H52.0625L53.4625 46.725L54.8625 43.1375H55.7375L53.8125 47.775H53.1125L51.1875 43.1375Z" fill="#A40344"/>
<path d="M55.9125 46.025C55.9125 44.975 56.6125 44.1875 57.6625 44.1875C58.8 44.1875 59.325 45.0625 59.325 46.1125C59.325 46.2 59.325 46.2875 59.325 46.375H56.7875C56.875 46.9875 57.3125 47.25 57.8375 47.25C58.1875 47.25 58.5375 47.075 58.8 46.8125L59.2375 47.25C58.8 47.6 58.3625 47.8625 57.75 47.8625C56.7 47.8625 55.9125 47.075 55.9125 46.025ZM58.5375 45.7625C58.45 45.2375 58.1875 44.8 57.6625 44.8C57.1375 44.8 56.7875 45.15 56.7875 45.7625H58.5375Z" fill="#A40344"/>
<path d="M60.1127 44.275H60.9002V45.0625C61.1627 44.5375 61.5127 44.1875 62.1252 44.1875V45.0625V45.0625C61.4252 45.0625 60.9002 45.5 60.9002 46.4625V47.775H60.1127V44.275V44.275Z" fill="#A40344"/>
<path d="M62.8248 42.9625H63.6998V43.75H62.8248V42.9625ZM62.9123 44.275H63.6998V47.775H62.9123V44.275Z" fill="#A40344"/>
<path d="M64.4877 47.075L65.0127 46.4625C65.4502 46.8125 65.8877 47.075 66.5002 47.075C67.0252 47.075 67.2877 46.8125 67.2877 46.4625C67.2877 46.1125 67.1127 45.9375 66.2377 45.7625C65.2752 45.5875 64.7502 45.2375 64.7502 44.3625C64.7502 43.575 65.4502 43.05 66.3252 43.05C67.0252 43.05 67.5502 43.225 67.9877 43.6625L67.5502 44.275C67.1127 43.925 66.6752 43.8375 66.3252 43.8375C65.8877 43.8375 65.5377 44.1 65.5377 44.3625C65.5377 44.7125 65.7127 44.8875 66.6752 45.0625C67.6377 45.325 68.1627 45.675 68.1627 46.4625C68.1627 47.3375 67.4627 47.8625 66.5002 47.8625C65.8002 47.8625 65.1002 47.6 64.4877 47.075Z" fill="#A40344"/>
<path d="M69.0375 42.9625H69.9125V43.75H69.0375V42.9625ZM69.0375 44.275H69.825V47.775H69.0375V44.275Z" fill="#A40344"/>
<path d="M70.8748 48.3875L71.1373 47.775C71.4873 48.0375 71.9248 48.125 72.3623 48.125C73.0623 48.125 73.4998 47.775 73.4998 47.075V46.8125C73.2373 47.1625 72.7998 47.425 72.2748 47.425C71.4873 47.425 70.6998 46.8125 70.6998 45.7625C70.6998 44.7125 71.4873 44.1 72.2748 44.1C72.8873 44.1 73.2373 44.3625 73.4998 44.7125V44.1875H74.2873V46.9875C74.2873 47.6 74.1123 48.0375 73.8498 48.3C73.4998 48.65 73.0623 48.7375 72.3623 48.7375C71.8373 48.825 71.3123 48.65 70.8748 48.3875ZM73.4998 45.85C73.4998 45.2375 73.0623 44.8875 72.4498 44.8875C71.9248 44.8875 71.4873 45.2375 71.4873 45.85C71.4873 46.4625 71.9248 46.8125 72.4498 46.8125C73.0623 46.8125 73.4998 46.375 73.4998 45.85Z" fill="#A40344"/>
<path d="M75.3376 44.275H76.1251V44.8C76.3876 44.45 76.6502 44.1875 77.2627 44.1875C78.0502 44.1875 78.4876 44.7125 78.4876 45.5V47.775H77.7002V45.7625C77.7002 45.2375 77.4376 44.8875 76.9126 44.8875C76.4751 44.8875 76.1251 45.2375 76.1251 45.7625V47.775H75.3376V44.275V44.275Z" fill="#A40344"/>
</svg>
