<svg width="91" height="49" viewBox="0 0 91 49" fill="none" xmlns="http://www.w3.org/2000/svg">
<g clip-path="url(#clip0_1660_632)">
<path d="M33.6092 14.7822H69.9015C73.5423 14.7822 76.5635 15.9446 79.1585 18.3083C81.6761 20.6332 82.9156 23.4232 82.9543 26.833H83.4578H82.9543C82.9156 30.1654 81.6761 32.9166 79.1585 35.2803C76.6022 37.6439 73.5423 38.8451 69.9015 38.8451H33.6092C33.3381 38.8451 33.1057 39.0776 33.1057 39.3489C33.1057 39.6201 33.3381 39.8526 33.6092 39.8526H69.9015C73.7747 39.8526 77.1057 38.5739 79.8557 36.0165C82.567 33.4978 83.9613 30.3979 83.9613 26.7943C83.9226 23.1519 82.567 20.0133 79.817 17.5333C77.067 15.0147 73.736 13.736 69.8628 13.736H33.6092C33.3381 13.736 33.1057 13.9685 33.1057 14.2397C33.1057 14.5497 33.3381 14.7822 33.6092 14.7822ZM33.6092 14.7822H69.9015C73.5423 14.7822 76.5635 15.9446 79.1585 18.3083C81.6761 20.6332 82.9156 23.4232 82.9543 26.833H83.4578H82.9543C82.9156 30.1654 81.6761 32.9166 79.1585 35.2803C76.6022 37.6439 73.5423 38.8451 69.9015 38.8451H33.6092C33.3381 38.8451 33.1057 39.0776 33.1057 39.3489C33.1057 39.6201 33.3381 39.8526 33.6092 39.8526H69.9015C73.7747 39.8526 77.1057 38.5739 79.8557 36.0165C82.567 33.4978 83.9613 30.3979 83.9613 26.7943C83.9226 23.1519 82.567 20.0133 79.817 17.5333C77.067 15.0147 73.736 13.736 69.8628 13.736H33.6092C33.3381 13.736 33.1057 13.9685 33.1057 14.2397C33.1057 14.5497 33.3381 14.7822 33.6092 14.7822Z" fill="#9B0033"/>
<path fill-rule="evenodd" clip-rule="evenodd" d="M30.3944 14.5109C32.4859 15.7122 34.1127 17.3784 35.3134 19.3933C36.5141 21.4857 37.1338 23.7719 37.1725 26.2906C37.1338 28.8867 36.5141 31.2116 35.3134 33.2266C34.1127 35.2803 32.4859 36.9465 30.3944 38.1864C28.3416 39.3876 26.0563 40.0076 23.5 40.0464C20.9437 40.0076 18.6585 39.3876 16.6056 38.1864C14.5141 36.9465 12.8873 35.2803 11.7254 33.2653C10.4472 31.2116 9.8662 28.9255 9.82747 26.3293C9.8662 23.8106 10.4472 21.4857 11.7254 19.432C12.8873 17.3784 14.5528 15.7509 16.6056 14.5497C18.6585 13.3485 20.9824 12.6898 23.5 12.651C26.0176 12.651 28.3416 13.3097 30.3944 14.5109ZM23.4613 9.8611C20.4014 9.89985 17.6127 10.6361 15.1338 12.1085C12.6937 13.581 10.757 15.5572 9.24648 17.9983C7.77465 20.4782 7.03873 23.2682 7 26.3293C7.03873 29.3905 7.77465 32.1804 9.24648 34.6603C10.757 37.1402 12.6937 39.1164 15.1338 40.6276C17.6127 42.0613 20.4014 42.7975 23.4613 42.875C26.5599 42.8363 29.3486 42.1 31.8275 40.6276C34.3063 39.1164 36.2817 37.1402 37.7535 34.6603C39.1866 32.1804 39.9613 29.3905 40 26.3293C39.9613 23.2682 39.2254 20.4782 37.7535 17.9983C36.2817 15.5572 34.3063 13.581 31.8275 12.1085C29.3486 10.6361 26.5599 9.89985 23.4613 9.8611Z" fill="#9B0033"/>
<path d="M44.1831 21.5632H45.3063L46.5458 24.8956L47.7852 21.5632H48.8697L47.0106 26.2906H46.081L44.1831 21.5632Z" fill="#9B0033"/>
<path d="M57.3133 22.6869H58.359V26.2906H57.3133V22.6869ZM57.2745 21.3695H58.359V22.2607H57.2745V21.3695ZM54.0597 22.6869H55.0668V23.3844C55.183 23.1519 55.3379 22.9582 55.4928 22.8032C55.6478 22.6482 55.8802 22.5707 56.19 22.6094V23.6944H56.1513C55.764 23.6944 55.5316 23.8106 55.3379 24.0044C55.1442 24.1981 55.0281 24.5469 55.0281 24.9731V26.2906H54.021V22.6869H54.0597ZM51.852 24.1981C51.8133 23.9656 51.7358 23.8106 51.6196 23.6169C51.5034 23.5006 51.3097 23.4232 51.1161 23.4232C50.8837 23.4232 50.7288 23.5006 50.5738 23.6169C50.4576 23.7719 50.3414 23.9656 50.3027 24.1981H51.852ZM51.1935 26.3681C50.9611 26.3681 50.69 26.2906 50.4576 26.2131C50.2252 26.1356 50.0316 26.0193 49.8379 25.8256C49.683 25.6706 49.5668 25.4768 49.4506 25.2443C49.3344 25.0118 49.2957 24.7406 49.2957 24.4694C49.2957 24.1981 49.3344 23.9656 49.4119 23.7331C49.528 23.5006 49.6055 23.3069 49.7992 23.1132C49.9541 22.9582 50.1478 22.8032 50.3802 22.7257C50.6126 22.6094 50.845 22.6094 51.1161 22.6094C51.4259 22.6094 51.6583 22.6869 51.8907 22.7644C52.1231 22.8807 52.2781 22.9969 52.433 23.1907C52.5492 23.3457 52.6654 23.5781 52.7816 23.8106C52.859 24.0431 52.8978 24.3144 52.8978 24.5469L52.859 24.6631V24.7794H50.3802C50.4189 25.0118 50.4964 25.1668 50.69 25.3218C50.845 25.4381 51.0386 25.4768 51.271 25.4768C51.4259 25.4768 51.5809 25.4381 51.7358 25.3606C51.852 25.3218 51.9682 25.2443 52.1231 25.0893L52.7041 25.5931C52.5492 25.8256 52.3168 25.9806 52.0844 26.0968C51.8133 26.2906 51.5421 26.3681 51.1935 26.3681Z" fill="#9B0033"/>
<path d="M61.4965 26.3293C61.1092 26.3293 60.7993 26.2518 60.412 26.1356C60.0634 26.0193 59.7923 25.8256 59.4824 25.5543L60.1021 24.8568C60.2958 25.0118 60.4895 25.1668 60.7219 25.2443C60.9543 25.3606 61.1866 25.3993 61.4578 25.3993C61.6902 25.3993 61.8451 25.3606 61.9613 25.2831C62.0775 25.2056 62.1162 25.1281 62.1162 24.9731V24.7794L61.9613 24.6631L61.6902 24.5469L61.1866 24.3919L60.5669 24.2369L60.0634 23.9656L59.7535 23.5781C59.6761 23.4231 59.6373 23.2294 59.6373 22.9969V22.9582L59.7535 22.3769C59.8697 22.2219 59.9472 22.0282 60.1409 21.9507C60.2571 21.8344 60.4507 21.7182 60.6444 21.6407C60.8381 21.5632 61.0704 21.5245 61.3028 21.5245C61.6514 21.5245 61.9226 21.602 62.2324 21.6795C62.5423 21.7957 62.8134 21.9119 63.0458 22.1057L62.5035 22.8807L61.8838 22.5319C61.6902 22.4157 61.4965 22.4157 61.2641 22.4157C61.0705 22.4157 60.9155 22.4544 60.8381 22.5319C60.7219 22.6094 60.6831 22.6869 60.6831 22.8032V22.8419L60.7606 23.0357L60.8768 23.1519L61.2254 23.2682L61.7289 23.3844L62.3486 23.6169C62.5035 23.6944 62.6972 23.7719 62.8134 23.8881L63.0845 24.2756C63.162 24.4306 63.2007 24.6244 63.2007 24.8181V24.8568C63.2007 25.0893 63.162 25.2831 63.0845 25.4768C63.0071 25.6318 62.9296 25.8256 62.7359 25.9418C62.581 26.0581 62.3873 26.1356 62.155 26.2131C61.9613 26.2906 61.7289 26.3293 61.4965 26.3293Z" fill="#9B0033"/>
<path d="M64.5176 22.6869H65.5634V26.2906H64.5176V22.6869ZM64.4789 21.3695H65.5634V22.2607H64.4789V21.3695Z" fill="#9B0033"/>
<path d="M72.0316 22.6869H73.0387V23.1907L73.2323 22.9969L73.4647 22.8032L73.7358 22.6869L74.0844 22.6482C74.4718 22.6482 74.7816 22.7644 74.9753 23.0357C75.2077 23.2682 75.3239 23.5781 75.3239 24.0044V26.3293H74.2781V24.2369C74.2781 24.0044 74.2394 23.8494 74.1619 23.6944C74.0457 23.5781 73.8908 23.5394 73.6971 23.5394C73.5035 23.5394 73.3098 23.6169 73.2323 23.6944C73.1161 23.8106 73.0774 24.0044 73.0774 24.2369V26.2518H72.0704V22.6869H72.0316ZM68.8168 25.1281L69.2042 25.0506C69.3204 25.0118 69.3591 24.9731 69.4753 24.8956C69.5528 24.8181 69.5915 24.7406 69.6302 24.6244C69.6689 24.5081 69.7077 24.4306 69.7077 24.2756L69.6302 23.9269C69.5915 23.8106 69.514 23.7331 69.4753 23.6556L69.2042 23.5006L68.8168 23.4232L68.4682 23.5006L68.1971 23.6556C68.0809 23.7331 68.0422 23.8106 68.0035 23.9269L67.926 24.2756C67.926 24.5469 68.0422 24.7406 68.1971 24.8956C68.352 25.0506 68.5844 25.1281 68.8168 25.1281ZM68.7006 27.3368L67.8485 27.2205C67.5387 27.1818 67.3063 27.1043 67.0739 26.9493L67.4612 26.1743L68.0422 26.4456L68.6619 26.523C69.0105 26.523 69.2816 26.4456 69.4366 26.2906C69.5915 26.1356 69.6689 25.9031 69.6689 25.5543V25.3993C69.5528 25.5543 69.3591 25.7481 69.2042 25.8256C69.0492 25.9418 68.8168 25.9418 68.507 25.9418C68.3133 25.9418 68.1196 25.9031 67.8873 25.8256C67.7323 25.7481 67.5387 25.6706 67.3837 25.4768C67.2675 25.3606 67.1513 25.1668 67.0351 24.9731C66.9189 24.7406 66.9189 24.5081 66.9189 24.2369C66.9189 23.9656 66.9577 23.7331 67.0351 23.5394C67.1513 23.3069 67.2288 23.1519 67.3837 22.9969C67.5387 22.8419 67.7323 22.7257 67.926 22.6482L68.507 22.5319C68.8168 22.5319 69.0492 22.6094 69.2042 22.6869C69.3591 22.8032 69.5528 22.8807 69.6689 23.0744V22.6869H70.676V25.4768C70.676 26.0968 70.5598 26.6005 70.2499 26.8718C70.095 27.0268 69.8626 27.1818 69.6302 27.2593L68.7006 27.3368Z" fill="#9B0033"/>
<path d="M46.7781 32.2191C46.3908 32.2191 46.0809 32.1416 45.6936 32.0254C45.345 31.9091 45.0739 31.7154 44.764 31.4441L45.3838 30.7467C45.5774 30.9017 45.7711 31.0567 46.0035 31.1342C46.2359 31.2504 46.4683 31.2891 46.7394 31.2891C46.9718 31.2891 47.1267 31.2504 47.2429 31.1729C47.3591 31.0954 47.3978 31.0179 47.3978 30.8629V30.6692L47.2429 30.5529L46.9718 30.4367L46.4683 30.2817L45.8485 30.1267L45.345 29.8554L45.0352 29.468C44.9577 29.313 44.919 29.1192 44.919 28.8867V28.848L45.0352 28.2667C45.1514 28.1118 45.2288 27.918 45.4225 27.8405C45.5387 27.7243 45.7323 27.608 45.926 27.5305C46.1197 27.453 46.3521 27.4143 46.5845 27.4143C46.9331 27.4143 47.2042 27.4918 47.514 27.5693C47.8239 27.6855 48.095 27.8018 48.3274 27.9955L47.7852 28.7705L47.1655 28.4217C46.9718 28.3055 46.7781 28.3055 46.5457 28.3055C46.3133 28.3055 46.1971 28.3442 46.1197 28.4217C46.0035 28.4992 45.9647 28.5767 45.9647 28.693V28.7317L46.0422 28.9255L46.1584 29.0417L46.507 29.158L47.0105 29.2742L47.6302 29.5067C47.7852 29.5842 47.9788 29.6617 48.095 29.7779L48.3662 30.1654C48.4436 30.3204 48.4824 30.5142 48.4824 30.7079V30.7467C48.4824 30.9792 48.4436 31.1729 48.3662 31.3666C48.2887 31.5216 48.2112 31.7154 48.0176 31.8316C47.8626 31.9479 47.669 32.0254 47.4366 32.1029C47.2816 32.1804 47.0493 32.2191 46.7781 32.2191Z" fill="#9B0033"/>
<path d="M56.3062 32.2579C56.0351 32.2579 55.8027 32.1804 55.5703 32.1029C55.3379 31.9866 55.1443 31.8704 54.9506 31.7154C54.7957 31.5604 54.6795 31.3666 54.5633 31.1342C54.4471 30.9017 54.4083 30.6304 54.4083 30.3979C54.4083 30.1267 54.4858 29.8942 54.5633 29.6617C54.6795 29.4292 54.7569 29.2355 54.9506 29.0417C55.1055 28.8867 55.3379 28.7317 55.5703 28.6542C55.8027 28.538 56.0351 28.538 56.345 28.538C56.6936 28.538 56.9647 28.6155 57.1971 28.693C57.4295 28.8092 57.5844 28.9255 57.7781 29.1192L57.1583 29.7779C57.0421 29.6617 56.9259 29.5455 56.771 29.468C56.6548 29.3905 56.4999 29.3517 56.3062 29.3517L55.9576 29.4292L55.6865 29.6617L55.4928 29.9717L55.4154 30.3592V30.3979C55.4154 30.5142 55.4541 30.6692 55.4928 30.7854C55.5316 30.9017 55.609 31.0179 55.6865 31.1342C55.764 31.2504 55.8414 31.2891 55.9576 31.3279C56.0738 31.3666 56.19 31.4054 56.345 31.4054C56.4999 31.4054 56.6548 31.3666 56.771 31.2891L57.1583 31.0179L57.7781 31.6379C57.6231 31.7929 57.3907 31.9866 57.1583 32.1029C56.9259 32.1804 56.6548 32.2579 56.3062 32.2579ZM52.2781 30.0492C52.2393 29.8167 52.1619 29.6617 52.0457 29.468C51.9295 29.3517 51.7358 29.2742 51.5421 29.2742C51.3097 29.2742 51.1548 29.3517 50.9999 29.468C50.8837 29.6229 50.7675 29.8167 50.7288 30.0492H52.2781ZM51.5809 32.2579C51.3485 32.2579 51.0774 32.1804 50.845 32.1029C50.6126 32.0254 50.4189 31.9091 50.2252 31.7154C50.0703 31.5604 49.9541 31.3666 49.8379 31.1342C49.7217 30.9017 49.683 30.6304 49.683 30.3592C49.683 30.0879 49.7217 29.8554 49.7992 29.623C49.9154 29.3905 49.9928 29.1967 50.1865 29.003C50.3414 28.848 50.5351 28.693 50.7675 28.6155C50.9999 28.4992 51.2323 28.4992 51.5034 28.4992C51.8133 28.4992 52.0457 28.5767 52.2781 28.6542C52.5105 28.7705 52.6654 28.8867 52.8203 29.0805C52.9365 29.2355 53.0527 29.468 53.1689 29.7004C53.2464 29.9329 53.2851 30.2042 53.2851 30.4367L53.2464 30.5529V30.6692H50.7675C50.8062 30.9017 50.8837 31.0567 51.0774 31.2116C51.2323 31.3279 51.4259 31.3666 51.6583 31.3666C51.8133 31.3666 51.9682 31.3279 52.1231 31.2504C52.2393 31.2116 52.3555 31.1341 52.5105 30.9792L53.0914 31.4829C52.9365 31.7154 52.7041 31.8704 52.4717 31.9866C52.2393 32.1804 51.9295 32.2579 51.5809 32.2579Z" fill="#9B0033"/>
<path d="M60.2184 32.2191C59.8311 32.2191 59.56 32.1029 59.3276 31.8316C59.1339 31.5991 59.0177 31.2891 59.0177 30.8629V28.538H60.0247V30.5529C60.0247 30.7854 60.1022 30.9404 60.1797 31.0954C60.2959 31.2116 60.4508 31.2504 60.6445 31.2504C60.7994 31.2504 60.9931 31.1729 61.1092 31.0954C61.2254 30.9791 61.2642 30.7854 61.2642 30.5529V28.538H62.2712V32.1416H61.2642V31.6379L61.0705 31.8316L60.8381 32.0254L60.567 32.1416L60.2184 32.2191Z" fill="#9B0033"/>
<path d="M73.6973 31.3279C73.8135 31.3279 73.9684 31.2891 74.0846 31.2504L74.3557 31.0566C74.4332 30.9404 74.4719 30.8629 74.5107 30.7467L74.5881 30.3592V30.3204L74.5107 29.9329L74.3557 29.6229L74.0846 29.4292C73.9684 29.3905 73.8522 29.3517 73.6973 29.3517L73.3487 29.4292L73.0776 29.6229L72.8839 29.9329C72.8452 30.0492 72.8064 30.1654 72.8064 30.3204V30.3592L72.8839 30.7467C72.9226 30.8629 73.0001 30.9404 73.0776 31.0566L73.3487 31.2504L73.6973 31.3279ZM73.4649 32.2191C73.2325 32.2191 73.0388 32.1804 72.8452 32.1029C72.6902 32.0254 72.4966 31.9479 72.3416 31.7541C72.1867 31.5991 72.0705 31.3666 71.9543 31.1341C71.8381 30.9017 71.8381 30.6692 71.8381 30.3592V30.3204C71.8381 30.0104 71.8769 29.7392 71.9543 29.5067C72.0705 29.2742 72.148 29.1192 72.3416 28.9255C72.4578 28.7705 72.6515 28.6542 72.8452 28.5767C73.0388 28.4605 73.2325 28.4605 73.4649 28.4605C73.736 28.4605 73.9684 28.538 74.1233 28.6155C74.2783 28.7317 74.4719 28.8092 74.5494 29.003V27.2205H75.5564V32.1029H74.5494V31.5991C74.4332 31.7541 74.2783 31.9091 74.1233 31.9866C73.9684 32.1416 73.736 32.2191 73.4649 32.2191ZM69.6304 30.0492C69.5916 29.8167 69.5142 29.6617 69.398 29.468C69.2818 29.3517 69.0881 29.2742 68.8945 29.2742C68.6621 29.2742 68.5071 29.3517 68.3522 29.468C68.236 29.6229 68.1198 29.8167 68.0811 30.0492H69.6304ZM68.9719 32.2579C68.7395 32.2579 68.4684 32.1804 68.236 32.1029C68.0036 32.0254 67.81 31.9091 67.6163 31.7154C67.4614 31.5604 67.3452 31.3666 67.229 31.1341C67.1128 30.9017 67.074 30.6304 67.074 30.3592C67.074 30.0879 67.1128 29.8554 67.1902 29.6229C67.3064 29.3905 67.3839 29.1967 67.5776 29.003C67.7325 28.848 67.9262 28.693 68.1585 28.6155C68.3909 28.4992 68.6233 28.4992 68.8945 28.4992C69.2043 28.4992 69.4367 28.5767 69.6691 28.6542C69.9015 28.7705 70.0564 28.8867 70.2114 29.0805C70.3276 29.2355 70.4438 29.468 70.56 29.7004C70.6374 29.9329 70.6762 30.2042 70.6762 30.4367L70.6374 30.5529V30.6692H68.1585C68.1973 30.9017 68.2747 31.0566 68.4684 31.2116C68.6233 31.3279 68.817 31.3666 69.0494 31.3666C69.2043 31.3666 69.3593 31.3279 69.5142 31.2504C69.6304 31.2116 69.7466 31.1341 69.9015 30.9792L70.4825 31.4829C70.3276 31.7154 70.0952 31.8704 69.8628 31.9866C69.6304 32.1804 69.3205 32.2579 68.9719 32.2579ZM63.898 28.538H64.905V29.2355C65.0212 29.003 65.1762 28.8092 65.3311 28.6542C65.486 28.4992 65.7184 28.4217 66.0283 28.4605V29.5454H65.9895C65.6022 29.5454 65.3698 29.6617 65.1762 29.8554C64.9825 30.0492 64.8663 30.3979 64.8663 30.8242V32.1416H63.8593V28.538H63.898Z" fill="#9B0033"/>
<path fill-rule="evenodd" clip-rule="evenodd" d="M77.338 13.3097H78.7711V13.6585H78.2676V15.0534H77.8803V13.6585H77.338V13.3097ZM80.9014 13.3097V15.0147H80.5141V13.891L80.088 14.6272H80.0105L79.5845 13.891V15.0147H79.1972V13.3097H79.6232L80.088 14.046L80.5141 13.3097H80.9014Z" fill="#9B0033"/>
<path fill-rule="evenodd" clip-rule="evenodd" d="M33.2605 18.3858H32.0211V19.6645H33.2605V18.3858ZM32.0211 15.1697H33.2605V16.4096H32.0211V15.1697ZM35.2358 11.876H33.9577V10.6361H35.2358V11.876ZM37.7535 9.27987H40.1936V7.92366H37.7535V11.8373H35.2746V13.116H33.1443V14.0072H32.0211V15.1309H30.6654V17.1071H29.3873V18.3471H28.5351V19.6258H27.6056C25.7077 22.4157 24.2358 25.1668 23.1901 27.9568C20.7887 24.5469 18.5422 22.5707 16.4506 21.8732C15.8696 21.7182 15.4823 21.8345 15.2499 22.3382C15.0175 22.8419 15.2112 23.4619 15.9084 24.2369C18.0387 26.5618 19.9753 29.8554 21.757 34.0403C22.0281 34.699 22.6478 35.0865 23.6161 35.164C24.507 35.2415 25.1267 34.8928 25.3978 34.1565C26.7147 30.7079 28.2253 27.763 29.9682 25.2443V23.8106H30.9753V22.5707H32.0598V21.0595H33.2992V19.6645H34.5774V18.3858H35.5844V16.8359H36.7077V15.7897H37.7922V13.1547H39.0316V11.876H40.4647V10.5973H39.0316V11.876H37.7922V13.1547H36.5528V14.3947H35.3133V13.1547H36.5528V9.27987H37.7535Z" fill="black"/>
<path d="M38.993 9.27987H37.7535V10.5973H38.993V9.27987Z" fill="#A10045"/>
<path d="M33.2606 15.1697H32.0211V16.4096H33.2606V15.1697Z" fill="white"/>
<path d="M42.9438 7.92366H41.5881V9.27987H42.9438V7.92366Z" fill="#9B0033"/>
<path d="M41.6269 7.92366V6.6062H40.2712V7.92366" fill="black"/>
<path d="M42.9438 5.25H41.5881V6.60621H42.9438V5.25Z" fill="#9B0033"/>
</g>
<defs>
<clipPath id="clip0_1660_632">
<rect width="77" height="37.625" fill="white" transform="translate(7 5.25)"/>
</clipPath>
</defs>
</svg>
